<?xml version="1.0" encoding="UTF-8" standalone="no"?>
<!-- Generator: Adobe Illustrator 23.0.1, SVG Export Plug-In . SVG Version: 6.00 Build 0)  -->

<svg
   version="1.1"
   id="Livello_1"
   x="0px"
   y="0px"
   width="120"
   height="120"
   viewBox="0 0 120 120"
   enable-background="new 0 0 354 106.202"
   xml:space="preserve"
   sodipodi:docname="uniroma1.svg"
   inkscape:version="1.2 (dc2aeda, 2022-05-15)"
   xmlns:inkscape="http://www.inkscape.org/namespaces/inkscape"
   xmlns:sodipodi="http://sodipodi.sourceforge.net/DTD/sodipodi-0.dtd"
   xmlns="http://www.w3.org/2000/svg"
   xmlns:svg="http://www.w3.org/2000/svg"><defs
   id="defs61" /><sodipodi:namedview
   id="namedview59"
   pagecolor="#ffffff"
   bordercolor="#000000"
   borderopacity="0.25"
   inkscape:showpageshadow="2"
   inkscape:pageopacity="0.0"
   inkscape:pagecheckerboard="0"
   inkscape:deskcolor="#d1d1d1"
   showgrid="false"
   inkscape:zoom="2.2221803"
   inkscape:cx="183.15346"
   inkscape:cy="49.725938"
   inkscape:window-width="1309"
   inkscape:window-height="761"
   inkscape:window-x="0"
   inkscape:window-y="25"
   inkscape:window-maximized="0"
   inkscape:current-layer="g56" />
<g
   id="g56"
   style="display:inline">
	<g
   id="g6"
   transform="matrix(1.1299222,0,0,1.1299222,9.997,0)">
		<path
   fill-rule="evenodd"
   clip-rule="evenodd"
   fill="#822433"
   d="m 88.508,53.102 c 0,29.288 -19.853,53.1 -44.257,53.1 C 19.843,106.202 0,82.39 0,53.102 0,23.821 19.843,0 44.251,0 68.655,0 88.508,23.821 88.508,53.102"
   id="path2" />
		<path
   fill-rule="evenodd"
   clip-rule="evenodd"
   fill="#ffffff"
   d="m 45.095,17 c 0,1.667 0.01,5.945 0,7.492 0,0.694 0.259,1.19 0.587,1.547 0.195,0.199 0.363,0.33 0.529,0.428 0.06,0.053 0.324,0.152 0.418,0.152 0.136,0.022 0.312,0.039 0.532,0.03 0.533,-0.039 1.059,-0.222 1.534,-0.74 1.012,-1.105 3.157,-3.398 4.073,-4.383 0.27,-0.289 -0.015,-0.335 -0.245,-0.327 -1.879,0.051 -3.89,1.845 -5.258,3.072 -0.17,-1.845 -0.453,-5.963 -1.816,-7.525 C 45.287,16.572 45.095,16.58 45.095,17 m -1.728,-0.254 c -1.371,1.562 -1.616,5.681 -1.773,7.525 -1.372,-1.227 -3.385,-3.02 -5.261,-3.072 -0.229,-0.008 -0.521,0.037 -0.253,0.327 0.914,0.985 3.059,3.278 4.077,4.383 0.474,0.518 0.998,0.701 1.487,0.731 0.27,0.017 0.438,0 0.577,-0.022 0.093,0 0.357,-0.1 0.42,-0.152 0.172,-0.098 0.334,-0.229 0.496,-0.388 0.363,-0.397 0.622,-0.893 0.616,-1.587 0,-1.547 0.006,-5.825 0.006,-7.492 0.005,-0.419 -0.239,-0.427 -0.392,-0.253 M 27.43,55.105 c 0.123,-1.41 -0.83,-2.622 -2.17,-2.88 -0.183,-0.014 -0.366,-0.03 -0.539,-0.053 C 18.913,51.615 13.171,49.953 7.844,47.149 7.721,47.078 7.61,47.21 7.67,47.33 c 0.331,0.633 1.282,1.365 2.734,2.393 1.656,1.183 7.06,3.797 11.66,4.704 1.768,0.351 3.563,0.578 5.366,0.678 m 4.37,6.711 c 0.071,-0.519 -0.026,-1.206 -0.283,-1.824 -0.098,-0.457 -0.424,-0.875 -0.841,-1.203 -0.673,-0.535 -1.534,-0.853 -2.194,-0.875 -5.984,-0.337 -11.813,-2.433 -16.991,-6.071 -0.26,-0.181 -0.357,-0.06 -0.154,0.192 0.904,1.105 1.795,2.271 2.951,3.171 3.504,2.736 7.579,4.368 11.727,5.1 0.888,0.158 1.793,0.274 2.692,0.349 0.201,0.008 0.335,0 0.368,0.061 0.039,0.054 0.042,0.205 -0.012,0.397 -0.076,0.875 -0.122,1.768 -0.122,2.659 0,4.125 0.928,8.334 3.049,12.198 0.701,1.273 1.721,2.34 2.673,3.4 0.216,0.244 0.343,0.168 0.209,-0.108 C 32.138,73.622 31.069,67.645 31.8,61.816 m 5.098,4.649 c 0.012,-0.174 0.026,-0.359 0.036,-0.528 -0.021,-1.339 -1.061,-2.476 -2.455,-2.606 h -0.053 c -0.212,1.753 -0.306,3.523 -0.263,5.3 0.087,4.581 1.847,10.252 2.741,12.059 0.777,1.577 1.342,2.628 1.921,3.048 0.116,0.084 0.255,0 0.213,-0.129 -1.876,-5.635 -2.614,-11.448 -2.14,-17.144 m 5.703,1.379 c 0,-0.007 0.076,-0.67 0.079,-0.679 0.335,-2.129 -0.404,-4.268 -1.732,-5.776 C 38.753,58.887 35.094,58.682 33.64,57.096 32.2,55.503 32.763,51.485 30.546,49.176 29.153,47.719 27.188,46.797 24.99,46.744 L 24.381,46.72 C 18.074,46.644 12.286,45.469 6.289,43.053 6.08,42.97 5.83,43.161 5.998,43.396 c 0.55,0.733 1.713,1.786 3.757,2.646 6.39,2.707 15.078,3.346 15.103,3.346 3.696,0.184 5.316,3.447 6.16,6.282 0.289,0.968 0.721,1.878 1.22,2.455 0.487,0.587 1.306,1.271 2.261,1.738 2.703,1.318 5.971,3.369 5.499,6.967 0,0.015 -1.174,8.5 0.406,15.131 0.508,2.129 1.266,3.432 1.908,4.087 0.206,0.205 0.439,0 0.389,-0.215 -1.352,-6.194 -1.158,-11.905 -0.1,-17.989 M 25.172,42.27 c -0.817,0.19 -2.682,0.662 -3.902,1.172 -0.198,0.078 -0.244,0.428 0.01,0.528 1.368,0.541 4.504,0.892 5.519,0.487 1.485,-0.58 1.159,-3.026 0.388,-4.062 -3.38,-4.805 -5.296,-10.559 -5.61,-16.795 -0.011,-0.312 -0.159,-0.312 -0.231,0 -0.319,1.381 -0.687,2.79 -0.687,4.232 -10e-4,5.343 1.77,10.306 4.513,14.438 m 0.82,-8.973 c 0.806,1.579 1.723,3.088 2.735,4.537 1.184,-0.787 1.55,-2.273 0.938,-3.461 -0.101,-0.147 -0.194,-0.298 -0.294,-0.445 -3.098,-4.786 -5.297,-10.22 -6.343,-16.045 -0.025,-0.137 -0.188,-0.145 -0.249,-0.015 -0.299,0.633 -0.289,1.829 -0.208,3.567 0.087,2.013 1.337,7.785 3.421,11.862 m 5.645,-0.999 c 2.109,2.943 0.539,6.212 -1.155,8.637 -2.076,2.941 0.475,6.671 0.352,4.491 -0.172,-3.21 3.882,-5.1 4.43,-8.905 0.281,-1.975 -0.184,-4.056 -1.486,-5.771 l -0.343,-0.474 c -3.783,-4.877 -6.391,-10.047 -8.16,-16.138 -0.061,-0.205 -0.36,-0.281 -0.442,0 -0.234,0.868 -0.346,2.41 0.217,4.52 1.786,6.573 6.577,13.625 6.587,13.64 m 30.045,8.097 c -0.767,1.036 -1.095,3.482 0.392,4.062 1.015,0.404 4.152,0.054 5.516,-0.487 0.253,-0.1 0.205,-0.45 0.003,-0.528 -1.209,-0.51 -3.08,-0.982 -3.903,-1.172 2.754,-4.132 4.523,-9.096 4.523,-14.438 0,-1.442 -0.37,-2.851 -0.687,-4.232 -0.071,-0.312 -0.217,-0.312 -0.233,0 -0.315,6.236 -2.226,11.99 -5.611,16.795 m -2.477,-6.022 c -0.618,1.188 -0.252,2.674 0.892,3.437 1.058,-1.425 1.966,-2.934 2.775,-4.513 2.094,-4.077 3.339,-9.849 3.426,-11.861 0.08,-1.738 0.087,-2.935 -0.211,-3.567 -0.061,-0.13 -0.22,-0.122 -0.242,0.015 -1.052,5.825 -3.247,11.259 -6.352,16.045 z m -1.176,11.053 c -0.122,2.18 2.436,-1.55 0.355,-4.491 -1.699,-2.425 -3.265,-5.694 -1.159,-8.637 0.015,-0.015 4.814,-7.067 6.588,-13.638 0.569,-2.111 0.461,-3.652 0.217,-4.52 -0.076,-0.281 -0.375,-0.205 -0.436,0 -1.774,6.091 -4.371,11.26 -8.168,16.138 0,0 -0.339,0.474 -0.342,0.474 -1.305,1.714 -1.766,3.796 -1.482,5.771 0.544,3.803 4.605,5.693 4.427,8.903 M 44.251,102.744 C 21.56,102.744 3.102,80.469 3.102,53.103 3.102,25.736 21.561,3.469 44.251,3.469 c 22.69,0 41.149,22.267 41.149,49.634 10e-4,27.365 -18.458,49.641 -41.149,49.641 m 0,-100.793 c -23.509,0 -42.63,22.945 -42.63,51.152 0,28.204 19.121,51.149 42.63,51.149 23.509,0 42.627,-22.945 42.627,-51.149 0,-28.207 -19.117,-51.152 -42.627,-51.152 m -8.192,50.808 c -1.08,0 -2.007,-0.924 -2.189,-1.32 -0.535,2.501 0.836,3.674 2.835,4.041 -0.342,-0.809 -0.564,-1.663 -0.645,-2.523 v -0.198 z m 0.056,-1.937 c 0.05,-0.777 0.062,-1.73 0.086,-2.469 -1.792,-0.199 -2.937,-1.563 -3.174,-1.899 -1.097,1.76 0.154,3.963 3.088,4.368 m 16.52,2.096 c -0.076,0.853 -0.296,1.708 -0.648,2.513 2.001,-0.363 3.282,-1.537 2.759,-4.038 -0.188,0.396 -1.028,1.32 -2.11,1.32 v 0.205 z m 3.036,-6.501 c -0.24,0.328 -1.378,1.692 -3.174,1.889 0.029,0.733 0.04,1.701 0.089,2.472 2.93,-0.405 4.183,-2.608 3.085,-4.361 m -9.187,-4.414 c 5.94,3.415 8.114,0.267 8.114,0.267 0,0 2.171,2.591 -1.565,3.598 -3.948,1.065 -6.621,-1.343 -7.257,-1.807 -1.177,-0.87 -1.423,-3.278 0.708,-2.058 m 3.186,-3.095 c 2.279,1.386 3.04,1.425 3.04,1.425 0,0 -0.079,2.378 -3.481,1.075 -1.197,-0.465 -4.836,-2.508 -4.22,-3.361 1.03,-1.434 2.818,-0.276 4.661,0.861 m -7.451,3.095 c -5.94,3.415 -8.025,0.267 -8.025,0.267 0,0 -2.261,2.591 1.475,3.598 3.948,1.065 6.621,-1.343 7.257,-1.807 1.177,-0.87 1.422,-3.278 -0.707,-2.058 m -3.187,-3.095 c -2.281,1.386 -2.948,1.425 -2.948,1.425 0,0 -0.015,2.378 3.387,1.075 1.198,-0.465 4.83,-2.508 4.222,-3.361 -1.037,-1.434 -2.819,-0.276 -4.661,0.861 M 51.209,51.92 c -0.1,-1.014 -0.234,-2.843 -0.27,-3.811 -2.795,0 -5.758,-2.134 -6.586,-3.47 -0.828,1.336 -3.796,3.47 -6.589,3.47 -0.039,0.968 -0.17,2.797 -0.273,3.811 -0.191,1.852 0.469,3.774 1.698,5.153 0.637,0.716 1.429,1.411 2.309,1.814 0.071,0.03 0.158,0.061 0.244,0.1 l 0.42,0.183 c 0.235,0.122 0.374,0.306 0.601,0.472 0.652,0.472 1.563,0.442 1.587,0.442 0.03,0 0.939,0.03 1.59,-0.442 0.229,-0.166 0.364,-0.35 0.607,-0.472 l 0.418,-0.183 c 0.089,-0.039 0.168,-0.069 0.245,-0.1 0.878,-0.403 1.667,-1.098 2.303,-1.814 1.232,-1.379 1.888,-3.302 1.696,-5.153 m -3.588,-0.755 c -1.594,0 -1.929,-0.479 -1.929,-0.479 0,0 0.402,-1.335 1.926,-1.335 1.518,0 2.086,1.113 2.086,1.113 -0.047,0.168 0.087,0.701 -2.083,0.701 m -3.235,6.098 c -1.339,0 -2.428,-1.112 -2.428,-1.432 0,-0.32 4.859,-0.32 4.859,0 10e-4,0.32 -1.089,1.432 -2.431,1.432 m -3.307,-6.098 c -2.163,0 -2.032,-0.533 -2.081,-0.701 0,0 0.568,-1.113 2.093,-1.113 1.515,0 1.932,1.335 1.932,1.335 0,0 -0.346,0.479 -1.944,0.479 m 3.307,2.043 c 0.697,0 1.257,0.291 1.257,0.526 0,0.237 -0.561,0.528 -1.257,0.528 -0.688,0 -1.249,-0.291 -1.249,-0.528 0,-0.235 0.561,-0.526 1.249,-0.526 m 22.436,1.22 c 4.582,-0.907 9.996,-3.522 11.652,-4.704 1.449,-1.028 2.404,-1.76 2.718,-2.393 0.061,-0.12 -0.046,-0.252 -0.168,-0.181 -5.326,2.804 -11.064,4.466 -16.872,5.023 -0.179,0.022 -0.361,0.039 -0.539,0.053 -1.342,0.259 -2.297,1.471 -2.17,2.88 1.8,-0.101 3.594,-0.328 5.379,-0.678 M 53.999,79.262 c -0.137,0.276 0,0.352 0.208,0.108 0.953,-1.059 1.973,-2.127 2.674,-3.4 2.123,-3.864 3.048,-8.072 3.048,-12.198 0,-0.89 -0.05,-1.784 -0.122,-2.659 -0.05,-0.192 -0.05,-0.343 -0.015,-0.397 0.035,-0.061 0.163,-0.053 0.368,-0.061 0.903,-0.075 1.802,-0.191 2.696,-0.349 4.148,-0.733 8.219,-2.364 11.728,-5.1 1.154,-0.9 2.044,-2.066 2.943,-3.171 0.204,-0.252 0.112,-0.374 -0.143,-0.192 -5.188,3.638 -11.011,5.735 -16.996,6.071 -0.658,0.022 -1.518,0.341 -2.192,0.875 -0.422,0.328 -0.742,0.746 -0.842,1.203 -0.256,0.618 -0.353,1.305 -0.283,1.824 0.734,5.829 -0.334,11.806 -3.072,17.446 m -4.16,4.347 c -0.047,0.129 0.096,0.213 0.211,0.129 0.582,-0.42 1.144,-1.471 1.922,-3.048 0.892,-1.807 2.648,-7.478 2.738,-12.059 0.044,-1.777 -0.05,-3.547 -0.262,-5.3 h -0.053 c -1.396,0.13 -2.446,1.267 -2.461,2.606 0.015,0.169 0.028,0.353 0.042,0.528 0.472,5.696 -0.27,11.509 -2.137,17.144 m -3.67,2.224 c -0.046,0.215 0.186,0.42 0.393,0.215 0.641,-0.655 1.4,-1.958 1.901,-4.087 1.586,-6.631 0.415,-15.116 0.415,-15.131 -0.482,-3.598 2.79,-5.649 5.495,-6.967 0.956,-0.467 1.773,-1.151 2.261,-1.738 0.497,-0.577 0.931,-1.487 1.219,-2.455 0.845,-2.835 2.466,-6.097 6.16,-6.282 0.021,0 8.712,-0.638 15.102,-3.346 2.04,-0.86 3.209,-1.914 3.758,-2.646 0.162,-0.235 -0.084,-0.427 -0.289,-0.342 -5.992,2.417 -11.786,3.591 -18.097,3.667 l -0.605,0.024 c -2.201,0.053 -4.161,0.975 -5.56,2.432 -2.21,2.309 -1.647,6.327 -3.09,7.92 -1.454,1.586 -5.113,1.791 -7.308,4.293 -1.327,1.508 -2.069,3.648 -1.734,5.776 0,0.008 0.086,0.672 0.086,0.679 1.055,6.083 1.248,11.794 -0.107,17.988 m 25.493,-3.275 c -0.079,-0.076 -0.168,-0.061 -0.233,-0.047 -0.231,0.047 -0.512,0.069 -0.741,0.04 -1.059,-0.14 -2.027,-0.208 -3.098,-0.337 0.205,-0.65 0.241,-1.816 -0.602,-2.594 -0.861,-0.785 -1.997,-0.379 -2.709,0.442 -0.305,0.353 -0.579,0.748 -0.884,1.115 -0.177,0.206 -0.575,0.618 -0.733,0.753 -0.122,0.101 -0.269,0.199 -0.366,0.321 -0.122,0.137 -0.162,0.289 -0.015,0.428 0.158,0.144 0.28,0.044 0.463,-0.161 0.31,-0.314 0.366,-0.267 0.645,-0.008 l 4.717,4.337 0.713,-1.051 -2.147,-1.975 0.091,-0.114 c 0.132,-0.154 0.201,-0.229 0.284,-0.391 l 2.385,0.259 c 0.781,0.1 1.375,0.291 1.986,-0.42 0.159,-0.18 0.32,-0.521 0.244,-0.597 m -5.397,-1.807 c 0.579,0.518 1.213,1.342 0.227,2.486 -0.093,0.104 -0.144,0.165 -0.215,0.226 L 64.05,81.422 c -0.082,-0.076 -0.116,-0.145 0.004,-0.283 l 0.245,-0.281 c 0.743,-0.863 1.323,-0.696 1.966,-0.107 M 9.792,69.095 C 9.624,68.606 9.49,67.754 9.708,66.892 l 0.744,0.061 c -0.265,0.692 -0.231,1.55 -0.108,1.937 0.306,0.914 0.951,1.41 1.734,1.134 0.391,-0.143 0.507,-0.586 0.594,-1.066 0.147,-0.746 0.143,-1.533 0.438,-2.234 0.219,-0.555 0.565,-1.066 1.346,-1.349 1.083,-0.381 2.129,0.45 2.543,1.685 0.136,0.41 0.233,0.951 0.334,1.654 -0.487,0.205 -0.854,0.334 -1.148,0.433 -0.147,0.061 -0.314,0.101 -0.389,-0.136 -0.048,-0.154 -0.028,-0.284 0.472,-0.573 0.211,-0.12 0.368,-0.503 0.125,-1.234 -0.258,-0.794 -0.805,-1.288 -1.55,-1.03 -0.514,0.184 -0.587,1.426 -0.633,1.907 -0.053,0.535 -0.122,1.142 -0.368,1.655 -0.226,0.464 -0.633,0.861 -1.227,1.075 -1.285,0.455 -2.393,-0.42 -2.823,-1.716 m 10.477,6.646 c -0.061,0.017 -0.137,0 -0.381,0.032 l -0.144,-0.517 -0.954,-1.991 -5.887,2.982 -0.655,-1.076 5.999,-3.049 c -0.259,-0.587 -0.76,-1.608 -0.76,-1.608 -0.289,-0.594 -0.366,-0.381 -0.78,-0.259 -0.194,0.053 -0.391,0.083 -0.463,-0.062 -0.097,-0.212 -0.01,-0.296 0.181,-0.395 0.23,-0.122 0.525,-0.262 0.817,-0.397 0.342,-0.162 0.454,0 0.564,0.276 0.134,0.305 0.252,0.572 0.44,1.005 0.558,1.296 1.194,2.576 1.8,3.842 0.115,0.235 0.283,0.449 0.428,0.655 0.037,0.069 0.084,0.115 0.109,0.169 0.025,0.061 0.089,0.258 -0.107,0.359 -0.099,0.05 -0.11,0.043 -0.207,0.034 m 4.492,6.474 C 24.65,82.1 24.467,82.085 24.258,82.144 l -6.622,1.87 -0.589,-0.633 c 1.431,-2.57 2.345,-4.254 3.565,-6.343 0.1,-0.159 0.18,-0.244 0.069,-0.42 -0.22,-0.312 -0.194,-0.411 -0.072,-0.51 0.138,-0.116 0.307,-0.078 0.428,0.112 0.145,0.283 0.451,0.712 0.6,0.946 0.183,0.289 0.06,0.519 -0.087,0.763 l -3.05,5.107 5.393,-1.554 c 0.345,-0.107 -0.341,-0.748 -0.061,-0.969 0.137,-0.105 0.27,-0.044 0.402,0.154 0.156,0.267 0.33,0.533 0.478,0.74 0.147,0.198 0.289,0.343 0.487,0.579 0.158,0.176 0.148,0.352 0.01,0.456 -0.086,0.069 -0.174,0.04 -0.448,-0.227 m 4.646,8.048 c 1.302,-1.73 0.841,-3.934 -0.929,-5.351 -0.436,-0.35 -0.728,-0.564 -0.985,-0.755 -0.211,-0.152 -0.425,-0.305 -0.625,-0.472 -0.215,-0.169 -0.481,-0.413 -0.608,-0.564 -0.109,-0.115 -0.216,-0.259 -0.338,-0.359 -0.137,-0.108 -0.313,-0.115 -0.429,0.039 -0.137,0.173 0.025,0.295 0.209,0.456 0.327,0.298 0.267,0.352 0.044,0.656 L 21.82,89.12 c 0.584,0.404 0.95,0.641 1.432,1.129 0.215,0.22 0.397,0.428 0.539,0.535 2.023,1.622 4.216,1.341 5.616,-0.521 m -1.149,-0.707 c -1.13,1.501 -2.561,2.104 -4.085,0.875 -0.402,-0.319 -0.691,-0.587 -0.889,-0.86 -0.123,-0.162 -0.108,-0.183 0.06,-0.413 l 3.415,-4.522 c 0.154,-0.205 0.248,-0.205 0.417,-0.06 l 0.748,0.601 c 1.913,1.527 1.331,3.044 0.334,4.379 m 5.26,-0.58 C 33.36,88.922 33.31,89.113 33.242,89.25 l -2.799,5.71 -1.144,-0.481 2.843,-5.801 c 0.192,-0.381 0.165,-0.305 -0.137,-0.533 -0.137,-0.107 -0.338,-0.198 -0.244,-0.381 0.087,-0.184 0.244,-0.215 0.451,-0.091 0.245,0.152 0.673,0.411 0.888,0.518 0.215,0.122 0.593,0.283 0.87,0.396 0.208,0.091 0.277,0.244 0.193,0.427 -0.071,0.144 -0.251,0.09 -0.645,-0.038 m 8.35,2.218 c -0.172,0.024 -0.32,0.115 -0.443,0.298 L 37.3,97.337 36.451,97.225 c -0.432,-2.929 -0.745,-4.743 -1.062,-7.173 -0.018,-0.176 -0.006,-0.298 -0.201,-0.359 -0.361,-0.098 -0.399,-0.198 -0.366,-0.352 0.043,-0.176 0.198,-0.267 0.4,-0.183 0.288,0.114 0.785,0.251 1.04,0.343 0.31,0.115 0.359,0.367 0.396,0.647 l 0.727,5.87 3.263,-4.695 c 0.204,-0.298 -0.722,-0.359 -0.636,-0.709 0.047,-0.176 0.183,-0.205 0.402,-0.137 0.281,0.09 1.408,0.183 1.713,0.183 0.234,0.007 0.337,0.09 0.307,0.298 -0.023,0.145 -0.164,0.189 -0.566,0.236 m 9.777,-1.372 c -0.414,0.198 -0.442,0.327 -0.295,0.884 0.172,0.665 1.612,6.114 1.612,6.114 l -1.307,0.342 -1.422,-5.571 -1.443,5.556 -0.595,0.201 -3.282,-4.865 0.375,5.559 -1.145,0.327 -0.414,-6.351 c -0.046,-0.647 -0.141,-0.792 -0.523,-0.823 -0.32,-0.03 -0.458,-0.115 -0.482,-0.289 -0.043,-0.269 0.187,-0.305 0.303,-0.312 0.312,-0.01 1.129,0.029 1.399,0.014 0.23,-0.007 0.353,0.022 0.536,0.289 l 3.376,5.145 1.53,-5.876 c 0.082,-0.289 0.264,-0.427 0.475,-0.487 0.277,-0.071 0.95,-0.33 1.241,-0.406 0.114,-0.03 0.393,-0.046 0.429,0.199 0.024,0.182 -0.098,0.221 -0.368,0.35 m 10.454,-6.283 c -0.132,0.26 -0.097,0.627 -0.046,0.841 l 1.444,6.632 -0.651,0.572 c -2.382,-1.654 -3.965,-2.554 -5.905,-3.957 -0.143,-0.108 -0.22,-0.199 -0.392,-0.091 -0.314,0.198 -0.414,0.168 -0.497,0.037 -0.1,-0.152 -0.062,-0.327 0.136,-0.427 0.274,-0.144 0.717,-0.42 0.944,-0.557 0.296,-0.168 0.504,-0.024 0.738,0.137 l 4.751,3.325 -1.256,-5.581 c -0.071,-0.359 -0.741,0.305 -0.929,0.008 -0.097,-0.161 -0.026,-0.276 0.173,-0.404 0.35,-0.228 0.95,-0.856 1.27,-1.235 0.158,-0.176 0.35,-0.13 0.453,0.024 0.051,0.09 -0.06,0.334 -0.233,0.676 m 11.698,-8.23 c -0.998,-0.649 -1.904,-0.253 -2.594,0.471 0.06,-0.738 -0.231,-1.364 -0.902,-1.791 -0.756,-0.489 -1.893,-0.107 -2.532,0.951 -0.216,0.352 -0.375,0.717 -0.594,1.076 -0.143,0.244 -0.402,0.619 -0.537,0.778 -0.108,0.122 -0.23,0.244 -0.306,0.381 -0.107,0.168 -0.061,0.35 0.086,0.45 0.133,0.076 0.197,0.044 0.403,-0.267 0.252,-0.374 0.314,-0.32 0.626,-0.122 l 0.237,0.161 5.199,3.346 c 0,0 0.443,-0.863 0.55,-1.029 0.222,-0.343 0.442,-0.487 0.67,-0.878 0.777,-1.272 0.783,-2.827 -0.306,-3.527 m -3.949,-0.117 c 0.595,0.382 1.001,0.917 0.429,1.861 l -0.222,0.374 -2.052,-1.328 c -0.159,-0.107 -0.217,-0.137 -0.127,-0.281 l 0.097,-0.168 c 0.438,-0.724 1.152,-0.93 1.875,-0.458 m 3.392,1.251 c 0.716,0.458 0.996,1.227 0.535,1.998 -0.184,0.312 -0.424,0.602 -0.658,0.836 -0.072,0.071 -0.073,0.071 -0.137,0.032 l -2.49,-1.608 0.204,-0.337 c 0.8,-1.319 1.702,-1.47 2.546,-0.921 m -2.517,-6.121 c -0.05,0.168 0.141,0.222 0.27,0.283 l 5.71,2.743 -0.427,1.198 -5.807,-2.797 c -0.368,-0.177 -0.292,-0.161 -0.508,0.168 -0.091,0.144 -0.174,0.349 -0.359,0.259 -0.18,-0.083 -0.216,-0.244 -0.107,-0.456 0.148,-0.262 0.377,-0.703 0.483,-0.932 0.1,-0.237 0.248,-0.625 0.355,-0.906 0.084,-0.23 0.23,-0.306 0.406,-0.215 0.136,0.069 0.096,0.252 -0.016,0.655 m 7.821,-1.457 c -0.158,0.487 -0.539,1.252 -1.219,1.8 l -0.55,-0.503 c 0.609,-0.396 1.083,-1.098 1.209,-1.487 0.291,-0.914 0.072,-1.716 -0.721,-1.973 -0.391,-0.138 -0.751,0.152 -1.097,0.479 -0.555,0.504 -1.001,1.137 -1.652,1.518 -0.499,0.305 -1.069,0.496 -1.863,0.237 -1.084,-0.368 -1.439,-1.678 -1.05,-2.929 0.136,-0.41 0.367,-0.897 0.698,-1.525 0.511,0.138 0.878,0.26 1.172,0.359 0.156,0.054 0.306,0.122 0.235,0.359 -0.051,0.154 -0.143,0.244 -0.712,0.168 -0.244,-0.046 -0.589,0.162 -0.828,0.9 -0.248,0.794 -0.101,1.54 0.64,1.784 0.526,0.183 1.306,-0.77 1.616,-1.122 0.356,-0.396 0.767,-0.846 1.264,-1.088 0.454,-0.237 1.012,-0.305 1.601,-0.108 1.296,0.435 1.67,1.828 1.257,3.131"
   id="path4" />
	</g>
	
	
	
	
	
	
	
	
	
	
	
	
	
	
	
	
	
</g>
</svg>
