<?xml version="1.0" encoding="utf-8"?>
<!-- Generator: Adobe Illustrator 24.1.0, SVG Export Plug-In . SVG Version: 6.00 Build 0)  -->
<svg version="1.1" id="svg2884" xmlns:svg="http://www.w3.org/2000/svg"
	 xmlns="http://www.w3.org/2000/svg" xmlns:xlink="http://www.w3.org/1999/xlink" x="0px" y="0px" viewBox="0 0 500 500"
	 style="enable-background:new 0 0 500 500;" xml:space="preserve">
<style type="text/css">
	.st0{fill-rule:evenodd;clip-rule:evenodd;}
	.st1{fill:none;stroke:#000000;stroke-width:3.3233;stroke-miterlimit:3.8637;}
	.st2{fill:none;stroke:#000000;stroke-width:3.3233;stroke-linecap:round;stroke-miterlimit:3.8637;}
	.st3{fill:none;stroke:#000000;stroke-width:3.3233;stroke-miterlimit:8.56;}
	.st4{fill:none;stroke:#000000;stroke-width:3.3233;stroke-linecap:round;stroke-linejoin:round;stroke-miterlimit:3.8637;}
	.st5{fill:none;stroke:#000000;stroke-width:3.3233;stroke-miterlimit:1;}
	.st6{stroke:#000000;stroke-width:3.3233;stroke-miterlimit:3.8637;}
</style>
<g id="layer1">
	<g id="g3043" transform="translate(-118.81536,120.73827)">
		<path id="path5" class="st0" d="M449.9-50.6c1.5,0.8,3.5,0.1,4.3-1.5c0.8-1.6,0.1-3.5-1.5-4.3c-1.6-0.8-3.5-0.1-4.3,1.5
			C447.6-53.3,448.3-51.4,449.9-50.6L449.9-50.6z M456.6-64.4c1.5,0.8,3.5,0.1,4.3-1.5c0.8-1.6,0.1-3.6-1.5-4.3
			c-1.6-0.8-3.5-0.1-4.3,1.5C454.3-67.1,455-65.1,456.6-64.4L456.6-64.4z"/>
		<path id="path7" class="st1" d="M284.1,247.1c0,0,17.8,15.4,84.6,15.4c66.7,0,86.4-14.1,86.4-14.1v12.8c0,0-19.7,14.1-86.4,14.1
			c-66.7,0-84.6-15.4-84.6-15.4V247.1L284.1,247.1z"/>
		<path id="path9" class="st2" d="M509.8,273.8c0-4.1,3.4-7.5,7.5-7.5c4.1,0,7.5,3.4,7.5,7.5c0,4.1-3.4,7.5-7.5,7.5
			C513.2,281.3,509.8,278,509.8,273.8L509.8,273.8z M471.7,304.3c0-4.1,3.4-7.5,7.5-7.5c4.1,0,7.5,3.4,7.5,7.5
			c0,4.1-3.4,7.5-7.5,7.5S471.7,308.5,471.7,304.3L471.7,304.3z"/>
		<path id="path11" d="M356.6,121.9c0-1.5,1.2-2.7,2.7-2.7c1.5,0,2.7,1.2,2.7,2.7c0,1.5-1.2,2.7-2.7,2.7
			C357.9,124.6,356.6,123.4,356.6,121.9L356.6,121.9z"/>
		<path id="path13" d="M361,125.9c0-1.5,1.2-2.7,2.7-2.7c1.5,0,2.7,1.2,2.7,2.7c0,1.5-1.2,2.7-2.7,2.7
			C362.2,128.6,361,127.4,361,125.9L361,125.9z"/>
		<path id="path15" d="M365.3,130c0-1.5,1.2-2.7,2.7-2.7s2.7,1.2,2.7,2.7c0,1.5-1.2,2.7-2.7,2.7S365.3,131.5,365.3,130L365.3,130z"
			/>
		<path id="path17" d="M368.7,135.1c0-1.5,1.2-2.7,2.7-2.7c1.5,0,2.7,1.2,2.7,2.7c0,1.5-1.2,2.7-2.7,2.7
			C369.9,137.8,368.7,136.6,368.7,135.1L368.7,135.1z"/>
		<path id="path19" d="M370.2,141.3c0-1.5,1.2-2.7,2.7-2.7c1.5,0,2.7,1.2,2.7,2.7c0,1.5-1.2,2.7-2.7,2.7
			C371.5,144,370.2,142.8,370.2,141.3L370.2,141.3z"/>
		<path id="path21" d="M370.7,147c0-1.5,1.2-2.7,2.7-2.7c1.5,0,2.7,1.2,2.7,2.7c0,1.5-1.2,2.7-2.7,2.7
			C371.9,149.7,370.7,148.5,370.7,147L370.7,147z"/>
		<path id="path23" d="M369.8,153.5c0-1.5,1.2-2.7,2.7-2.7c1.5,0,2.7,1.2,2.7,2.7c0,1.5-1.2,2.7-2.7,2.7
			C371,156.2,369.8,154.9,369.8,153.5L369.8,153.5z"/>
		<path id="path25" d="M368.9,159.9c0-1.5,1.2-2.7,2.7-2.7c1.5,0,2.7,1.2,2.7,2.7s-1.2,2.7-2.7,2.7
			C370.1,162.6,368.9,161.4,368.9,159.9L368.9,159.9z"/>
		<path id="path27" d="M374,156.7c0-1.5,1.2-2.7,2.7-2.7c1.5,0,2.7,1.2,2.7,2.7c0,1.5-1.2,2.7-2.7,2.7
			C375.2,159.4,374,158.2,374,156.7L374,156.7z"/>
		<path id="path29" d="M377.4,151.8c0-1.5,1.2-2.7,2.7-2.7c1.5,0,2.7,1.2,2.7,2.7c0,1.5-1.2,2.7-2.7,2.7
			C378.6,154.5,377.4,153.3,377.4,151.8L377.4,151.8z"/>
		<path id="path31" d="M380.6,146.2c0-1.5,1.2-2.7,2.7-2.7c1.5,0,2.7,1.2,2.7,2.7c0,1.5-1.2,2.7-2.7,2.7
			C381.8,148.9,380.6,147.7,380.6,146.2L380.6,146.2z"/>
		<path id="path33" d="M383.7,140.5c0-1.5,1.2-2.7,2.7-2.7c1.5,0,2.7,1.2,2.7,2.7c0,1.5-1.2,2.7-2.7,2.7
			C384.9,143.2,383.7,142,383.7,140.5L383.7,140.5z"/>
		<path id="path35" d="M385.3,134.3c0-1.5,1.2-2.7,2.7-2.7c1.5,0,2.7,1.2,2.7,2.7c0,1.5-1.2,2.7-2.7,2.7
			C386.5,137,385.3,135.8,385.3,134.3L385.3,134.3z"/>
		<path id="path37" d="M385.7,128.6c0-1.5,1.2-2.7,2.7-2.7c1.5,0,2.7,1.2,2.7,2.7c0,1.5-1.2,2.7-2.7,2.7
			C387,131.4,385.7,130.1,385.7,128.6L385.7,128.6z"/>
		<path id="path39" d="M384.9,122.2c0-1.5,1.2-2.7,2.7-2.7c1.5,0,2.7,1.2,2.7,2.7c0,1.5-1.2,2.7-2.7,2.7
			C386.1,124.9,384.9,123.7,384.9,122.2L384.9,122.2z"/>
		<polygon id="polygon41" class="st3" points="239.4,57.2 283,57.2 283,72.1 239.4,72.1 		"/>
		<path id="path43" class="st4" d="M295.7,88.7c-0.2,27.7,0.8,42.1,3.2,70.9c3.1,36.3,5.6,47.2,12,76.9 M291.4,82.3
			c-0.9,46.6,0.9,75.4,1.3,110.2c0.5,36.4,1.3,34,4.8,45.7 M438.1,151.9c-2.5,45.1-10.9,81.7-16.6,85.7 M447.8,149.4
			c-2.5,45.1-4.6,79.6-9.9,91.5"/>
		<path id="path45" class="st2" d="M241.6,301.8c0-4.1,3.4-7.5,7.5-7.5c4.1,0,7.5,3.4,7.5,7.5s-3.4,7.5-7.5,7.5
			C245,309.3,241.6,305.9,241.6,301.8L241.6,301.8z M206.8,272.7c0-4.1,3.4-7.5,7.5-7.5c4.1,0,7.5,3.4,7.5,7.5
			c0,4.1-3.4,7.5-7.5,7.5C210.2,280.2,206.8,276.9,206.8,272.7L206.8,272.7z"/>
		<path id="path47" class="st5" d="M367.2,70.7l-11.3,5.8c-1.6,6.6-2.5,10.4-3.8,17.1c-0.8,4.2-4,7.1-1.9,10.8
			c1,1.8,1.9,2.7,3.8,3.5c2.2,1,4,0.9,6.3,0.2c1.9-0.6,3-1.1,4.2-2.6c1.7-2.2,1.1-4.3,1.2-7c0.1-4.9-5.5-9.6-2.8-12.2
			C367.7,81.7,369,76.8,367.2,70.7L367.2,70.7z"/>
		<path id="path49" class="st1" d="M394.4,82.8c0.3,5.9,4.9,7.2,4.9,12.1c0,5.1,0.4,4.7-0.8,7.3c-1,2-1.9,3.1-3.8,4.3
			c-2.8,1.7-5.3,1.9-8.4,0.8"/>
		<path id="path51" class="st1" d="M362.9,106.3c0.6,2.2,0.7,3.6,0.5,5.9c-0.2,2.7-0.6,4.3-1.9,6.8 M384.5,108.2
			c0.4,3.7,0.2,6-0.6,9.6c-0.6,2.7-1.2,4.2-2.4,6.7"/>
		<path id="path53" class="st1" d="M368.7,71.2c5.3-1,8.3-1.3,13.7-1.2c4.5,0.1,7.1,0.3,11.6,1.2c0.8,3.2,0.9,5.2,0.6,8.5
			c-0.1,1.1-0.2,1.8-0.5,2.9c0.8,3.8,0.8,6.1-0.1,9.8c-0.8,3.3-2.1,4.9-3.7,7.9c-1.2,2.2-1.9,3.4-3.2,5.4c-0.8,1.3-1.5,2-2.9,2.8
			c-2.7,1.5-5.2,1.5-7.9,0c-5.1-2.5-8.9-8.7-11.5-13.2"/>
		<polygon id="polygon55" points="371.3,79.3 381.2,79 380.2,82.4 372.7,83.4 		"/>
		<polygon id="polygon57" points="393.6,78.8 386.3,78.6 387.1,81.8 392.5,83 		"/>
		<polygon id="polygon59" points="385.2,79.7 385.2,87 386.4,90.1 384.9,91.5 387.3,92.2 387.5,82.1 387.1,79.7 		"/>
		<polygon id="polygon61" points="388.2,96.9 378.8,96.9 380.3,98.8 382.6,99.9 387.8,100.2 		"/>
		<path id="path63" class="st1" d="M355.6,75.5c5.1-2.8,8.3-4.1,14-5.4c9.3-2.2,15.2-2.2,24.5,0l1.6-8.1c-9.8-3-16.3-3.2-26.2-0.8
			c-6.8,1.6-10.6,3.3-16.4,7.3L355.6,75.5L355.6,75.5z M351.8,67.7l-11.6-11.6c3-3.1,6-4.3,10.2-4c4.4,0.2,7.4,1.8,10,5.4l5.7-3.5
			c-0.8-2.5-0.9-4.1-0.5-6.7c0.6-3.9,4.6-8.9,4.6-8.9c0.3,0,6.1,2,8.4,5.1c1.9,2.6,2.5,4.6,2.4,7.8l7.3,0.8c0.4-3.7,1.8-6,4.8-8.1
			c4.1-2.8,8.5-2.9,12.7-0.3c-3,3.7-4.5,6-6.7,10.2c-1.3,2.6-1.8,4.1-3,6.8"/>
		<path id="path65" class="st4" d="M365.4,32.4c-8.6-24.8-14-46.8,3.3-47.5c22-0.9,18.7,18,8.5,47.7 M383.6,35.7
			c6.3-23.2,9.2-47.4,25.9-40.9c16,6.3,14.2,19.2-9.5,39.7 M405.3,60.4c25.7-8.5,43.2-18.8,48.1-6.4 M408.3,35.9
			C417,24,434,8.8,441.8,24.7c9.5,19-12.6,21-32.2,26.7 M360.6,35.1c-8.5-22.6-16.2-46.9-28.2-41.7c-16.1,7.1-10.7,18.5,18.5,47.6
			 M332,56.7c-25.1-9.1-38.4-18.2-44.6-4.2 M344.9,43.2C335.8,32.8,307.8-0.1,299,22c-7.7,19.2,16,20.3,34.6,27.2"/>
		<path id="path67" class="st1" d="M336.2,305c-13.9-8.6-27.1-12.2-38.1-22.5c-4.8-4.5-5.9-10.3-3.7-14.2"/>
		<path id="path69" class="st4" d="M357.7,307.4c-10.2-6.9-16.2-9.3-18.5-18.5c-1.2-4.8-0.3-8.9,3.3-12.2 M365.3,303.7
			c-6.3-7.9-8.3-8-9.3-14.9c-0.6-4.3,1.3-8.9,4.7-10.9 M348.7,306.4c-14.6-7-19.5-6.8-28.8-19.2c-4-5.3-3.6-7.6-1.7-12.9
			 M369.8,303.7c6.3-7.9,8.3-8,9.3-14.9c0.6-4.3-1.3-8.9-4.7-10.9 M374.7,307.6c11.6-5.3,20.1-10.8,22.4-20.1
			c1.2-4.8,1-7.3-2.7-10.6 M386.4,306.4c14.6-7,21.9-7.8,31.2-20.2c4-5.3,5.4-7.3,1-11.6 M398.9,305c13.9-8.6,25.6-9.2,36.5-19.5
			c4.8-4.5,2.6-11.3,0.3-15.2"/>
		<path id="path71" d="M250.4,289.6c0-1.6,1.3-3,3-3c1.6,0,3,1.3,3,3c0,1.6-1.3,3-3,3C251.8,292.5,250.4,291.2,250.4,289.6
			L250.4,289.6z"/>
		<path id="path73" d="M257.3,297.8c0-1.6,1.3-3,3-3c1.6,0,3,1.3,3,3c0,1.6-1.3,3-3,3C258.6,300.7,257.3,299.4,257.3,297.8
			L257.3,297.8z"/>
		<path id="path75" d="M255.1,310.4c0-1.6,1.3-3,3-3c1.6,0,3,1.3,3,3c0,1.6-1.3,3-3,3C256.5,313.4,255.1,312.1,255.1,310.4
			L255.1,310.4z"/>
		<path id="path77" d="M242,314c0-1.6,1.3-3,3-3c1.6,0,3,1.3,3,3c0,1.6-1.3,3-3,3C243.3,317,242,315.7,242,314L242,314z"/>
		<path id="path79" d="M234.7,304.8c0-1.6,1.3-3,3-3c1.6,0,3,1.3,3,3c0,1.6-1.3,3-3,3C236.1,307.8,234.7,306.5,234.7,304.8
			L234.7,304.8z"/>
		<path id="path81" d="M237.9,293c0-1.6,1.3-3,3-3c1.6,0,3,1.3,3,3c0,1.6-1.3,3-3,3C239.2,295.9,237.9,294.6,237.9,293L237.9,293z"
			/>
		<path id="path83" d="M215.6,260.5c0-1.6,1.3-3,3-3c1.6,0,3,1.3,3,3c0,1.6-1.3,3-3,3C216.9,263.4,215.6,262.1,215.6,260.5
			L215.6,260.5z"/>
		<path id="path85" d="M222.5,268.7c0-1.6,1.3-3,3-3c1.6,0,3,1.3,3,3s-1.3,3-3,3C223.8,271.6,222.5,270.3,222.5,268.7L222.5,268.7z"
			/>
		<path id="path87" d="M220.3,281.3c0-1.6,1.3-3,3-3c1.6,0,3,1.3,3,3c0,1.6-1.3,3-3,3C221.6,284.3,220.3,283,220.3,281.3
			L220.3,281.3z"/>
		<path id="path89" d="M207.1,284.9c0-1.6,1.3-3,3-3c1.6,0,3,1.3,3,3c0,1.6-1.3,3-3,3C208.4,287.9,207.1,286.6,207.1,284.9
			L207.1,284.9z"/>
		<path id="path91" d="M199.9,275.7c0-1.6,1.3-3,3-3c1.6,0,3,1.3,3,3c0,1.6-1.3,3-3,3C201.2,278.7,199.9,277.4,199.9,275.7
			L199.9,275.7z"/>
		<path id="path93" d="M203,263.9c0-1.6,1.3-3,3-3s3,1.3,3,3c0,1.6-1.3,3-3,3S203,265.5,203,263.9L203,263.9z"/>
		<path id="path95" d="M480.5,292.1c0-1.6,1.3-3,3-3s3,1.3,3,3c0,1.6-1.3,3-3,3S480.5,293.7,480.5,292.1L480.5,292.1z"/>
		<path id="path97" d="M487.4,300.3c0-1.6,1.3-3,3-3c1.6,0,3,1.3,3,3c0,1.6-1.3,3-3,3C488.7,303.3,487.4,301.9,487.4,300.3
			L487.4,300.3z"/>
		<path id="path99" d="M485.2,312.9c0-1.6,1.3-3,3-3s3,1.3,3,3c0,1.6-1.3,3-3,3S485.2,314.6,485.2,312.9L485.2,312.9z"/>
		<path id="path101" d="M472,316.5c0-1.6,1.3-3,3-3s3,1.3,3,3c0,1.6-1.3,3-3,3S472,318.2,472,316.5L472,316.5z"/>
		<path id="path103" d="M464.8,307.3c0-1.6,1.3-3,3-3c1.6,0,3,1.3,3,3c0,1.6-1.3,3-3,3C466.1,310.3,464.8,309,464.8,307.3
			L464.8,307.3z"/>
		<path id="path105" d="M467.9,295.5c0-1.6,1.3-3,3-3s3,1.3,3,3s-1.3,3-3,3S467.9,297.1,467.9,295.5L467.9,295.5z"/>
		<path id="path107" d="M288.5-75.5c0-1.6,1.3-3,3-3c1.6,0,3,1.3,3,3c0,1.6-1.3,3-3,3C289.8-72.5,288.5-73.8,288.5-75.5L288.5-75.5z
			"/>
		<path id="path109" d="M295.4-67.3c0-1.6,1.3-3,3-3c1.6,0,3,1.3,3,3c0,1.6-1.3,3-3,3C296.7-64.3,295.4-65.6,295.4-67.3L295.4-67.3z
			"/>
		<path id="path111" d="M293.2-54.6c0-1.6,1.3-3,3-3c1.6,0,3,1.3,3,3c0,1.6-1.3,3-3,3C294.6-51.6,293.2-53,293.2-54.6L293.2-54.6z"
			/>
		<path id="path113" d="M280-51c0-1.6,1.3-3,3-3c1.6,0,3,1.3,3,3c0,1.6-1.3,3-3,3C281.4-48,280-49.4,280-51L280-51z"/>
		<path id="path115" d="M272.8-60.2c0-1.6,1.3-3,3-3c1.6,0,3,1.3,3,3c0,1.6-1.3,3-3,3C274.1-57.2,272.8-58.6,272.8-60.2L272.8-60.2z
			"/>
		<path id="path117" d="M276-72.1c0-1.6,1.3-3,3-3c1.6,0,3,1.3,3,3c0,1.6-1.3,3-3,3C277.3-69.1,276-70.4,276-72.1L276-72.1z"/>
		<path id="path119" class="st6" d="M447.3-70.9l2-6.7c-1.2-0.7-3.8-2.2-6.7-3.2c-6.3-2.2-10.7-0.7-12.3,3.9
			c-1.2,3.4,0.2,6.2,2.2,8.8c3.1,3.9,7.6,7.2,6.1,11.4c-0.9,2.6-3.7,3.9-7.4,2.6c-5.6-1.9-5.2-6.3-5-8.6l-1.2-0.4l-2.2,7.2
			c1.3,0.9,3.8,2.6,7.2,3.8c6.5,2.2,12,1.6,14-4.4c1-2.9,0.2-5.3-1.4-7.7c-2.4-3.6-9-8.1-7.5-12.3c0.8-2.2,3.3-3.3,6.8-2.1
			c4.5,1.6,4.6,5,4.2,7.4L447.3-70.9L447.3-70.9z"/>
		<path id="path121" d="M513.8-28.9l4.3-5.6c-0.9-1.1-2.8-3.4-5.1-5.4c-5.1-4.3-9.8-4.5-12.9-0.8c-2.3,2.8-2,5.9-1.1,9
			c1.5,4.7,4.5,9.4,1.6,12.8c-1.8,2.1-4.8,2.3-7.9-0.2c-4.5-3.8-2.6-7.7-1.6-9.8l-1-0.8l-4.6,5.9c0.9,1.3,2.6,3.8,5.4,6.1
			c5.3,4.4,10.6,5.8,14.7,0.9c2-2.4,2.1-4.9,1.5-7.7c-0.9-4.2-5.5-10.7-2.6-14.2c1.5-1.8,4.3-1.9,7.1,0.4c3.7,3.1,2.5,6.3,1.2,8.4
			L513.8-28.9L513.8-28.9z"/>
		<path id="path123" class="st1" d="M513.8-28.9l4.3-5.6c-0.9-1.1-2.8-3.4-5.1-5.4c-5.1-4.3-9.8-4.5-12.9-0.8c-2.3,2.8-2,5.9-1.1,9
			c1.5,4.7,4.5,9.4,1.6,12.8c-1.8,2.1-4.8,2.3-7.9-0.2c-4.5-3.8-2.6-7.7-1.6-9.8l-1-0.8l-4.6,5.9c0.9,1.3,2.6,3.8,5.4,6.1
			c5.3,4.4,10.6,5.8,14.7,0.9c2-2.4,2.1-4.9,1.5-7.7c-0.9-4.2-5.5-10.7-2.6-14.2c1.5-1.8,4.3-1.9,7.1,0.4c3.7,3.1,2.5,6.3,1.2,8.4
			L513.8-28.9L513.8-28.9z"/>
		<path id="path125" class="st0" d="M505.5-5.8l7.1,8.5l0.9-0.7c-1.5-1.8-1.9-2.9-0.8-3.8c0.5-0.4,1-0.6,1.6-0.8l4.6-1.7l7.5,9
			l-2.6,4.5c-0.3,0.5-0.6,1-1.1,1.4c-1.1,0.9-2.3-0.2-3.4-1.6l-0.9,0.7l8.3,9.9l0.9-0.7c-2-2.4-2.1-3.8-0.3-6.9L540.5-11l-2.4-2.8
			l-24.5,8.6c-3.8,1.3-5.3,1.1-7.3-1.3L505.5-5.8L505.5-5.8z M534.8-9.8l-7.3,12.7L521-5L534.8-9.8L534.8-9.8z"/>
		<path id="path127" class="st1" d="M505.5-5.8l7.1,8.5l0.9-0.7c-1.5-1.8-1.9-2.9-0.8-3.8c0.5-0.4,1-0.6,1.6-0.8l4.6-1.7l7.5,9
			l-2.6,4.5c-0.3,0.5-0.6,1-1.1,1.4c-1.1,0.9-2.3-0.2-3.4-1.6l-0.9,0.7l8.3,9.9l0.9-0.7c-2-2.4-2.1-3.8-0.3-6.9L540.5-11l-2.4-2.8
			l-24.5,8.6c-3.8,1.3-5.3,1.1-7.3-1.3L505.5-5.8L505.5-5.8z M534.8-9.8l-7.3,12.7L521-5L534.8-9.8L534.8-9.8z"/>
		<path id="path129" class="st0" d="M530.3,25.1l6.2,11.1l1-0.5c-1.5-2.8-1.3-3.7,1.8-5.4l7-3.9l0.8,1.5c2.7,4.9,6.6,10.9,13.6,7
			c5.5-3,5-8.1,2.2-13.1l-6.2-11.2l-1,0.6c1.5,2.8,1.3,3.7-1.8,5.4l-17.1,9.5c-3.1,1.7-4,1.5-5.6-1.3L530.3,25.1L530.3,25.1z
			 M556.3,20.8c2.4-1.3,3-1.3,4.2,0.8c1.9,3.4,2.4,6.1-2.3,8.7c-5.4,3-7.5-0.2-9.3-3.6l-0.8-1.4L556.3,20.8L556.3,20.8z"/>
		<path id="path131" class="st1" d="M530.3,25.1l6.2,11.1l1-0.5c-1.5-2.8-1.3-3.7,1.8-5.4l7-3.9l0.8,1.5c2.7,4.9,6.6,10.9,13.6,7
			c5.5-3,5-8.1,2.2-13.1l-6.2-11.2l-1,0.6c1.5,2.8,1.3,3.7-1.8,5.4l-17.1,9.5c-3.1,1.7-4,1.5-5.6-1.3L530.3,25.1L530.3,25.1z
			 M556.3,20.8c2.4-1.3,3-1.3,4.2,0.8c1.9,3.4,2.4,6.1-2.3,8.7c-5.4,3-7.5-0.2-9.3-3.6l-0.8-1.4L556.3,20.8L556.3,20.8z"/>
		<path id="path133" d="M544.7,52.5l4.8,11.8l1.1-0.4c-1.2-2.9-0.8-3.8,2.5-5.1l18.1-7.3c3.3-1.3,4.2-1,5.4,2l1.1-0.4l-4.8-11.8
			l-1,0.4c1.2,3,0.8,3.8-2.5,5.1l-18.1,7.3c-3.3,1.3-4.1,1-5.4-2L544.7,52.5L544.7,52.5z"/>
		<path id="path135" class="st1" d="M544.7,52.5l4.8,11.8l1.1-0.4c-1.2-2.9-0.8-3.8,2.5-5.1l18.1-7.3c3.3-1.3,4.2-1,5.4,2l1.1-0.4
			l-4.8-11.8l-1,0.4c1.2,3,0.8,3.8-2.5,5.1l-18.1,7.3c-3.3,1.3-4.1,1-5.4-2L544.7,52.5L544.7,52.5z"/>
		<path id="path137" d="M552.1,71.1l5.3,21.4l6.4-1.3l-0.3-1.3c-2.8,0.6-4.7-0.3-5.6-4.1l-1-4c-0.6-2.3-0.4-2.7,2.5-3.4l9.1-2.3
			l1.4,5.8c0.7,2.9-0.1,3.5-2.7,4.2l0.3,1.2l9.1-2.3l-0.3-1.2c-2.9,0.7-3.6,0.4-4.3-2.4l-1.4-5.8l7.8-1.9c2.5-0.6,3.3-0.3,3.8,1.9
			l0.7,2.8c1.2,4.9-0.6,6-2.9,6.8l0.3,1.3l6.3-1.9l-5.2-20.7l-1.1,0.3c0.8,3.1,0.3,3.9-3.2,4.8l-18.9,4.7c-3.4,0.9-4.3,0.4-5-2.7
			L552.1,71.1L552.1,71.1z"/>
		<path id="path139" class="st1" d="M552.1,71.1l5.3,21.4l6.4-1.3l-0.3-1.3c-2.8,0.6-4.7-0.3-5.6-4.1l-1-4c-0.6-2.3-0.4-2.7,2.5-3.4
			l9.1-2.3l1.4,5.8c0.7,2.9-0.1,3.5-2.7,4.2l0.3,1.2l9.1-2.3l-0.3-1.2c-2.9,0.7-3.6,0.4-4.3-2.4l-1.4-5.8l7.8-1.9
			c2.5-0.6,3.3-0.3,3.8,1.9l0.7,2.8c1.2,4.9-0.6,6-2.9,6.8l0.3,1.3l6.3-1.9l-5.2-20.7l-1.1,0.3c0.8,3.1,0.3,3.9-3.2,4.8l-18.9,4.7
			c-3.4,0.9-4.3,0.4-5-2.7L552.1,71.1L552.1,71.1z"/>
		<path id="path141" class="st0" d="M559.4,101.3l0.7,10.5l1.1-0.1c-0.2-3.2,0.4-3.9,3.9-4.1l20.2-1.4l0,0.1L560.9,123l0.3,4.3
			l24.8-1.7c3.5-0.2,4.2,0.3,4.5,3.5l1.1-0.1l-0.7-10.5l-1.1,0.1c0.2,3.2-0.4,3.9-3.9,4.1l-19,1.3l0-0.1l23.3-15.8l-0.6-8.9
			l-1.1,0.1c0.2,3.2-0.4,3.9-3.9,4.1l-19.5,1.4c-3.5,0.2-4.3-0.4-4.5-3.5L559.4,101.3L559.4,101.3z"/>
		<path id="path143" class="st1" d="M559.4,101.3l0.7,10.5l1.1-0.1c-0.2-3.2,0.4-3.9,3.9-4.1l20.2-1.4l0,0.1L560.9,123l0.3,4.3
			l24.8-1.7c3.5-0.2,4.2,0.3,4.5,3.5l1.1-0.1l-0.7-10.5l-1.1,0.1c0.2,3.2-0.4,3.9-3.9,4.1l-19,1.3l0-0.1l23.3-15.8l-0.6-8.9
			l-1.1,0.1c0.2,3.2-0.4,3.9-3.9,4.1l-19.5,1.4c-3.5,0.2-4.3-0.4-4.5-3.5L559.4,101.3L559.4,101.3z"/>
		<path id="path145" d="M560.9,142.5l-1.1,12.6l1.1,0.1c0.3-3.2,1-3.8,4.5-3.5l22.7,2l-0.1,1.7c-0.4,4.7-2.1,5.6-5.5,5.8l-0.1,1.3
			l7,0.4l2-23l-7-0.9l-0.1,1.3c3.3,0.8,4.8,1.9,4.4,6.6l-0.2,1.8l-22.7-2c-3.5-0.3-4.1-1.1-3.9-4.2L560.9,142.5L560.9,142.5z"/>
		<path id="path147" class="st1" d="M560.9,142.5l-1.1,12.6l1.1,0.1c0.3-3.2,1-3.8,4.5-3.5l22.7,2l-0.1,1.7
			c-0.4,4.7-2.1,5.6-5.5,5.8l-0.1,1.3l7,0.4l2-23l-7-0.9l-0.1,1.3c3.3,0.8,4.8,1.9,4.4,6.6l-0.2,1.8l-22.7-2
			c-3.5-0.3-4.1-1.1-3.9-4.2L560.9,142.5L560.9,142.5z"/>
		<path id="path149" d="M557.9,166.8l-2.6,12.4l1.1,0.2c0.7-3.1,1.5-3.6,4.9-2.9l19.1,4.1c3.5,0.7,4,1.5,3.3,4.6l1.1,0.2l2.6-12.4
			l-1.1-0.2c-0.7,3.2-1.5,3.6-4.9,2.9l-19.1-4.1c-3.5-0.7-4-1.5-3.3-4.6L557.9,166.8L557.9,166.8z"/>
		<path id="path151" class="st1" d="M557.9,166.8l-2.6,12.4l1.1,0.2c0.7-3.1,1.5-3.6,4.9-2.9l19.1,4.1c3.5,0.7,4,1.5,3.3,4.6
			l1.1,0.2l2.6-12.4l-1.1-0.2c-0.7,3.2-1.5,3.6-4.9,2.9l-19.1-4.1c-3.5-0.7-4-1.5-3.3-4.6L557.9,166.8L557.9,166.8z"/>
		<path id="path153" class="st0" d="M554.1,185.2l-4,10.3l1.1,0.4c0.9-2.2,1.6-3,2.9-2.5c0.5,0.2,1,0.6,1.5,1l3.7,3.3l-4.2,11
			l-5.2-0.1c-0.6,0-1.2-0.1-1.7-0.3c-1.3-0.5-0.9-2.1-0.3-3.7l-1.1-0.4l-4.6,12.1l1.1,0.4c1.1-3,2.3-3.6,5.9-3.6l26.6,0.3l1.3-3.5
			l-19.4-17.2c-3-2.7-3.5-4.1-2.4-7L554.1,185.2L554.1,185.2z M571.9,208.9l-14.6-0.2l3.7-9.5L571.9,208.9L571.9,208.9z"/>
		<path id="path155" class="st1" d="M554.1,185.2l-4,10.3l1.1,0.4c0.9-2.2,1.6-3,2.9-2.5c0.5,0.2,1,0.6,1.5,1l3.7,3.3l-4.2,11
			l-5.2-0.1c-0.6,0-1.2-0.1-1.7-0.3c-1.3-0.5-0.9-2.1-0.3-3.7l-1.1-0.4l-4.6,12.1l1.1,0.4c1.1-3,2.3-3.6,5.9-3.6l26.6,0.3l1.3-3.5
			l-19.4-17.2c-3-2.7-3.5-4.1-2.4-7L554.1,185.2L554.1,185.2z M571.9,208.9l-14.6-0.2l3.7-9.5L571.9,208.9L571.9,208.9z"/>
		<path id="path157" d="M539,221.7l-11.4,18.9l5.5,3.6l0.7-1.1c-2.4-1.6-3.1-3.5-1.1-6.9l2.1-3.6c1.2-2,1.6-2.2,4.2-0.6l8,4.8
			L544,242c-1.5,2.5-2.6,2.4-4.9,1l-0.6,1.1l8,4.8l0.6-1c-2.6-1.5-2.9-2.3-1.4-4.8l3.1-5.1l6.9,4.1c2.2,1.3,2.5,2.1,1.4,4l-1.5,2.5
			c-2.6,4.4-4.7,3.8-6.9,2.7l-0.7,1.1l5.8,3.2l11-18.3l-1-0.6c-1.6,2.7-2.6,3-5.6,1.1l-16.7-10c-3-1.8-3.3-2.8-1.6-5.5L539,221.7
			L539,221.7z"/>
		<path id="path159" class="st1" d="M539,221.7l-11.4,18.9l5.5,3.6l0.7-1.1c-2.4-1.6-3.1-3.5-1.1-6.9l2.1-3.6c1.2-2,1.6-2.2,4.2-0.6
			l8,4.8L544,242c-1.5,2.5-2.6,2.4-4.9,1l-0.6,1.1l8,4.8l0.6-1c-2.6-1.5-2.9-2.3-1.4-4.8l3.1-5.1l6.9,4.1c2.2,1.3,2.5,2.1,1.4,4
			l-1.5,2.5c-2.6,4.4-4.7,3.8-6.9,2.7l-0.7,1.1l5.8,3.2l11-18.3l-1-0.6c-1.6,2.7-2.6,3-5.6,1.1l-16.7-10c-3-1.8-3.3-2.8-1.6-5.5
			L539,221.7L539,221.7z"/>
		<path id="path161" d="M438.5,336.4l2.9,6.4c1.3-0.3,4.3-0.9,7.2-2c6.1-2.5,8.6-6.5,6.7-11c-1.4-3.4-4.2-4.6-7.4-5.2
			c-4.9-0.9-10.4-0.4-12.1-4.6c-1-2.6,0.2-5.4,3.9-6.9c5.5-2.2,8.1,1.3,9.4,3.2l1.2-0.5l-3.1-6.8c-1.6,0.2-4.6,0.5-7.9,1.9
			c-6.4,2.6-10.1,6.6-7.7,12.5c1.2,2.9,3.4,4.1,6.1,4.9c4.1,1.2,12.1,0.2,13.7,4.3c0.9,2.2-0.3,4.7-3.7,6.1c-4.5,1.8-6.8-0.7-8-2.9
			L438.5,336.4L438.5,336.4z"/>
		<path id="path163" class="st1" d="M438.5,336.4l2.9,6.4c1.3-0.3,4.3-0.9,7.2-2c6.1-2.5,8.6-6.5,6.7-11c-1.4-3.4-4.2-4.6-7.4-5.2
			c-4.9-0.9-10.4-0.4-12.1-4.6c-1-2.6,0.2-5.4,3.9-6.9c5.5-2.2,8.1,1.3,9.4,3.2l1.2-0.5l-3.1-6.8c-1.6,0.2-4.6,0.5-7.9,1.9
			c-6.4,2.6-10.1,6.6-7.7,12.5c1.2,2.9,3.4,4.1,6.1,4.9c4.1,1.2,12.1,0.2,13.7,4.3c0.9,2.2-0.3,4.7-3.7,6.1c-4.5,1.8-6.8-0.7-8-2.9
			L438.5,336.4L438.5,336.4z"/>
		<path id="path165" d="M413.4,319.9l-12.4,2.6l0.2,1.1c3.1-0.7,3.9-0.1,4.6,3.3l4.7,22.3l-1.7,0.4c-4.7,1-6-0.3-7.1-3.5l-1.3,0.3
			l1.7,6.8l22.6-4.8l-1.2-6.9l-1.3,0.3c0.2,3.3-0.4,5.1-5,6.1l-1.7,0.4l-4.7-22.3c-0.7-3.5-0.2-4.3,2.9-4.9L413.4,319.9L413.4,319.9
			z"/>
		<path id="path167" class="st1" d="M413.4,319.9l-12.4,2.6l0.2,1.1c3.1-0.7,3.9-0.1,4.6,3.3l4.7,22.3l-1.7,0.4
			c-4.7,1-6-0.3-7.1-3.5l-1.3,0.3l1.7,6.8l22.6-4.8l-1.2-6.9l-1.3,0.3c0.2,3.3-0.4,5.1-5,6.1l-1.7,0.4l-4.7-22.3
			c-0.7-3.5-0.2-4.3,2.9-4.9L413.4,319.9L413.4,319.9z"/>
		<path id="path169" d="M363.1,350.5c0.1,3.5-0.5,4.2-3.7,4.4l0,1.1l11-0.4l0-1.1c-3.2,0.1-3.9-0.5-4-4.1l-0.5-15.1
			c-0.2-5.7,1.4-8.1,6.7-8.3c5.7-0.2,6.6,3.3,6.8,7.8l0.5,15.1c0.1,3.5-0.5,4.2-3.7,4.4l0,1.1l12.7-0.4l0-1.1
			c-3.2,0.1-3.9-0.5-4-4.1l-0.5-15.1c-0.2-6.6-3.3-10.1-11.2-9.8c-9.3,0.3-10.7,5.4-10.6,10.5L363.1,350.5L363.1,350.5z"/>
		<path id="path171" class="st1" d="M363.1,350.5c0.1,3.5-0.5,4.2-3.7,4.4l0,1.1l11-0.4l0-1.1c-3.2,0.1-3.9-0.5-4-4.1l-0.5-15.1
			c-0.2-5.7,1.4-8.1,6.7-8.3c5.7-0.2,6.6,3.3,6.8,7.8l0.5,15.1c0.1,3.5-0.5,4.2-3.7,4.4l0,1.1l12.7-0.4l0-1.1
			c-3.2,0.1-3.9-0.5-4-4.1l-0.5-15.1c-0.2-6.6-3.3-10.1-11.2-9.8c-9.3,0.3-10.7,5.4-10.6,10.5L363.1,350.5L363.1,350.5z"/>
		<path id="path173" class="st0" d="M349.7,325.1l-11.6-1.8c-8.6-1.4-15-0.3-17,12.7c-2,12.5,3.8,15.8,12.3,17.1l11.6,1.8l0.2-1.1
			c-3.2-0.5-3.7-1.3-3.1-4.8l3.1-19.3c0.6-3.5,1.3-4.1,4.5-3.6L349.7,325.1L349.7,325.1z M337,348.2c-0.4,2.8-1,3.1-3.4,2.8
			c-8.4-1.3-8.6-6-7.3-14.3c1.4-8.9,3.7-12.7,11.4-11.5c2.7,0.4,2.7,1.4,2.4,3.7L337,348.2L337,348.2z"/>
		<path id="path175" class="st1" d="M349.7,325.1l-11.6-1.8c-8.6-1.4-15-0.3-17,12.7c-2,12.5,3.8,15.8,12.3,17.1l11.6,1.8l0.2-1.1
			c-3.2-0.5-3.7-1.3-3.1-4.8l3.1-19.3c0.6-3.5,1.3-4.1,4.5-3.6L349.7,325.1L349.7,325.1z M337,348.2c-0.4,2.8-1,3.1-3.4,2.8
			c-8.4-1.3-8.6-6-7.3-14.3c1.4-8.9,3.7-12.7,11.4-11.5c2.7,0.4,2.7,1.4,2.4,3.7L337,348.2L337,348.2z"/>
		<path id="path177" d="M312.8,317.9l-12-4.1l-0.4,1.1c3,1,3.4,1.9,2.3,5.2l-6.4,18.4c-1.1,3.3-2,3.8-5,2.7l-0.4,1.1l12,4.1l0.4-1.1
			c-3-1.1-3.4-1.9-2.3-5.2l6.4-18.4c1.1-3.3,2-3.8,5-2.7L312.8,317.9L312.8,317.9z"/>
		<path id="path179" class="st1" d="M312.8,317.9l-12-4.1l-0.4,1.1c3,1,3.4,1.9,2.3,5.2l-6.4,18.4c-1.1,3.3-2,3.8-5,2.7l-0.4,1.1
			l12,4.1l0.4-1.1c-3-1.1-3.4-1.9-2.3-5.2l6.4-18.4c1.1-3.3,2-3.8,5-2.7L312.8,317.9L312.8,317.9z"/>
		<path id="path181" d="M292.6,310.6l-11.6-5.2l-0.5,1c2.9,1.3,3.2,2.2,1.8,5.4l-7.9,17.8c-1.4,3.2-2.3,3.6-5.2,2.3l-0.5,1l11.6,5.2
			l0.5-1c-2.9-1.3-3.2-2.2-1.8-5.4l7.9-17.8c1.4-3.2,2.3-3.6,5.2-2.3L292.6,310.6L292.6,310.6z"/>
		<path id="path183" class="st1" d="M292.6,310.6l-11.6-5.2l-0.5,1c2.9,1.3,3.2,2.2,1.8,5.4l-7.9,17.8c-1.4,3.2-2.3,3.6-5.2,2.3
			l-0.5,1l11.6,5.2l0.5-1c-2.9-1.3-3.2-2.2-1.8-5.4l7.9-17.8c1.4-3.2,2.3-3.6,5.2-2.3L292.6,310.6L292.6,310.6z"/>
		<path id="path185" class="st0" d="M202,233.5l-2-3.4l-26.6,4.9c-3.1,0.6-4.2,0.3-5.8-2.4l-1,0.6l5.8,9.7l1-0.6
			c-1.4-2.4-1.5-3.4-0.5-4.1c0.4-0.3,1-0.4,2.2-0.6l20.5-3.8l0,0.1l-13.2,15.9c-0.8,1-1.2,1.4-1.7,1.6c-1.1,0.7-2,0-3.1-1.9l-1,0.6
			l6.6,11l1-0.6c-1.8-2.9-1.4-3.8,1.1-6.8L202,233.5L202,233.5z"/>
		<path id="path187" class="st1" d="M202,233.5l-2-3.4l-26.6,4.9c-3.1,0.6-4.2,0.3-5.8-2.4l-1,0.6l5.8,9.7l1-0.6
			c-1.4-2.4-1.5-3.4-0.5-4.1c0.4-0.3,1-0.4,2.2-0.6l20.5-3.8l0,0.1l-13.2,15.9c-0.8,1-1.2,1.4-1.7,1.6c-1.1,0.7-2,0-3.1-1.9l-1,0.6
			l6.6,11l1-0.6c-1.8-2.9-1.4-3.8,1.1-6.8L202,233.5L202,233.5z"/>
		<path id="path189" d="M189.8,210.2l-4.8-11.8l-1.1,0.4c1.2,2.9,0.8,3.8-2.5,5.2l-18.1,7.3c-3.3,1.3-4.2,1-5.4-2l-1.1,0.4l4.8,11.8
			l1.1-0.4c-1.2-3-0.8-3.8,2.5-5.2l18.1-7.3c3.3-1.3,4.2-1,5.4,2L189.8,210.2L189.8,210.2z"/>
		<path id="path191" class="st1" d="M189.8,210.2l-4.8-11.8l-1.1,0.4c1.2,2.9,0.8,3.8-2.5,5.2l-18.1,7.3c-3.3,1.3-4.2,1-5.4-2
			l-1.1,0.4l4.8,11.8l1.1-0.4c-1.2-3-0.8-3.8,2.5-5.2l18.1-7.3c3.3-1.3,4.2-1,5.4,2L189.8,210.2L189.8,210.2z"/>
		<path id="path193" d="M182,190l-5.3-21.4l-6.4,1.3l0.3,1.3c2.8-0.6,4.7,0.3,5.6,4.1l1,4c0.6,2.3,0.4,2.7-2.5,3.4l-9.1,2.3
			l-1.4-5.8c-0.7-2.9,0.1-3.5,2.7-4.2l-0.3-1.2l-9.1,2.3l0.3,1.2c2.9-0.7,3.6-0.4,4.3,2.4l1.4,5.8l-7.8,1.9
			c-2.5,0.6-3.3,0.3-3.8-1.9l-0.7-2.8c-1.2-4.9,0.6-6,2.9-6.8l-0.3-1.3l-6.3,1.9l5.2,20.7l1.1-0.3c-0.8-3.1-0.3-3.9,3.2-4.8
			l18.9-4.7c3.4-0.9,4.3-0.4,5,2.7L182,190L182,190z"/>
		<path id="path195" class="st1" d="M182,190l-5.3-21.4l-6.4,1.3l0.3,1.3c2.8-0.6,4.7,0.3,5.6,4.1l1,4c0.6,2.3,0.4,2.7-2.5,3.4
			l-9.1,2.3l-1.4-5.8c-0.7-2.9,0.1-3.5,2.7-4.2l-0.3-1.2l-9.1,2.3l0.3,1.2c2.9-0.7,3.6-0.4,4.3,2.4l1.4,5.8l-7.8,1.9
			c-2.5,0.6-3.3,0.3-3.8-1.9l-0.7-2.8c-1.2-4.9,0.6-6,2.9-6.8l-0.3-1.3l-6.3,1.9l5.2,20.7l1.1-0.3c-0.8-3.1-0.3-3.9,3.2-4.8
			l18.9-4.7c3.4-0.9,4.3-0.4,5,2.7L182,190L182,190z"/>
		<path id="path197" class="st0" d="M174.3,157.6l-0.6-10.5l-1.1,0.1c0.2,3.2-0.5,3.9-4,4.1l-20.2,1.1l0-0.1l24.8-16.2l-0.2-4.3
			l-24.8,1.3c-3.5,0.2-4.2-0.4-4.4-3.6l-1.1,0.1l0.6,10.5l1.1-0.1c-0.2-3.2,0.5-3.9,4-4.1l19-1l0,0.1l-23.6,15.4l0.5,8.9l1.1-0.1
			c-0.2-3.2,0.5-3.9,4-4.1l19.5-1c3.5-0.2,4.2,0.5,4.4,3.6L174.3,157.6L174.3,157.6z"/>
		<path id="path199" class="st1" d="M174.3,157.6l-0.6-10.5l-1.1,0.1c0.2,3.2-0.5,3.9-4,4.1l-20.2,1.1l0-0.1l24.8-16.2l-0.2-4.3
			l-24.8,1.3c-3.5,0.2-4.2-0.4-4.4-3.6l-1.1,0.1l0.6,10.5l1.1-0.1c-0.2-3.2,0.5-3.9,4-4.1l19-1l0,0.1l-23.6,15.4l0.5,8.9l1.1-0.1
			c-0.2-3.2,0.5-3.9,4-4.1l19.5-1c3.5-0.2,4.2,0.5,4.4,3.6L174.3,157.6L174.3,157.6z"/>
		<path id="path201" d="M172.9,119.3l1.5-10.5l-1.1-0.2c-0.5,3.2-1.2,3.7-4.7,3.2l-20.1-2.8l0-0.1l27.5-11.2l0.6-4.3l-24.6-3.5
			c-3.5-0.5-4.1-1.2-3.6-4.4l-1.1-0.2L145.7,96l1.1,0.2c0.4-3.1,1.2-3.7,4.7-3.2l18.8,2.6l0,0.1l-26.1,10.7l-1.2,8.8l1.1,0.2
			c0.4-3.1,1.2-3.7,4.7-3.2l19.3,2.7c3.5,0.5,4.1,1.3,3.6,4.4L172.9,119.3L172.9,119.3z"/>
		<path id="path203" class="st1" d="M172.9,119.3l1.5-10.5l-1.1-0.2c-0.5,3.2-1.2,3.7-4.7,3.2l-20.1-2.8l0-0.1l27.5-11.2l0.6-4.3
			l-24.6-3.5c-3.5-0.5-4.1-1.2-3.6-4.4l-1.1-0.2L145.7,96l1.1,0.2c0.4-3.1,1.2-3.7,4.7-3.2l18.8,2.6l0,0.1l-26.1,10.7l-1.2,8.8
			l1.1,0.2c0.4-3.1,1.2-3.7,4.7-3.2l19.3,2.7c3.5,0.5,4.1,1.3,3.6,4.4L172.9,119.3L172.9,119.3z"/>
		<path id="path205" d="M179.4,81.4l6.8-21l-6.2-2.3l-0.4,1.2c2.7,1,3.8,2.7,2.6,6.4l-1.3,4c-0.7,2.2-1.1,2.5-3.9,1.6l-8.9-2.9
			l1.8-5.6c0.9-2.8,2-2.9,4.5-2.1l0.4-1.2l-8.9-2.9l-0.4,1.2c2.8,0.9,3.3,1.6,2.4,4.4l-1.8,5.6l-7.6-2.5c-2.4-0.8-3-1.5-2.3-3.6
			l0.9-2.8c1.6-4.8,3.7-4.8,6.1-4.2l0.4-1.2l-6.3-1.8l-6.6,20.3l1.1,0.4c1-3,1.8-3.5,5.2-2.4l18.5,6c3.4,1.1,3.8,1.9,2.8,5
			L179.4,81.4L179.4,81.4z"/>
		<path id="path207" class="st1" d="M179.4,81.4l6.8-21l-6.2-2.3l-0.4,1.2c2.7,1,3.8,2.7,2.6,6.4l-1.3,4c-0.7,2.2-1.1,2.5-3.9,1.6
			l-8.9-2.9l1.8-5.6c0.9-2.8,2-2.9,4.5-2.1l0.4-1.2l-8.9-2.9l-0.4,1.2c2.8,0.9,3.3,1.6,2.4,4.4l-1.8,5.6l-7.6-2.5
			c-2.4-0.8-3-1.5-2.3-3.6l0.9-2.8c1.6-4.8,3.7-4.8,6.1-4.2l0.4-1.2l-6.3-1.8l-6.6,20.3l1.1,0.4c1-3,1.8-3.5,5.2-2.4l18.5,6
			c3.4,1.1,3.8,1.9,2.8,5L179.4,81.4L179.4,81.4z"/>
		<path id="path209" d="M190.2,50.2l5.1-9.2l-1-0.6c-1.6,2.8-2.5,3-5.6,1.3l-17.7-9.8l0-0.1l29.6-0.6l2.1-3.8l-21.7-12.1
			c-3.1-1.7-3.4-2.6-1.8-5.4l-1-0.5l-5.1,9.2l1,0.5c1.5-2.8,2.5-3,5.6-1.3l16.6,9.2l0,0.1l-28.2,0.6l-4.3,7.8l1,0.5
			c1.5-2.8,2.5-3,5.6-1.3l17.1,9.5c3.1,1.7,3.4,2.6,1.8,5.4L190.2,50.2L190.2,50.2z"/>
		<path id="path211" class="st1" d="M190.2,50.2l5.1-9.2l-1-0.6c-1.6,2.8-2.5,3-5.6,1.3l-17.7-9.8l0-0.1l29.6-0.6l2.1-3.8
			l-21.7-12.1c-3.1-1.7-3.4-2.6-1.8-5.4l-1-0.5l-5.1,9.2l1,0.5c1.5-2.8,2.5-3,5.6-1.3l16.6,9.2l0,0.1l-28.2,0.6l-4.3,7.8l1,0.5
			c1.5-2.8,2.5-3,5.6-1.3l17.1,9.5c3.1,1.7,3.4,2.6,1.8,5.4L190.2,50.2L190.2,50.2z"/>
		<path id="path213" d="M205.1-13.3l-5.6-4.2c-1,0.9-3.4,2.9-5.3,5.2c-4.2,5.1-4.3,9.8-0.5,12.9c2.8,2.3,5.9,1.9,9,0.9
			c4.7-1.6,9.3-4.7,12.8-1.9c2.2,1.7,2.4,4.8-0.1,7.9c-3.7,4.6-7.7,2.8-9.8,1.7l-0.8,1l6,4.5c1.3-0.9,3.8-2.7,6-5.5
			c4.3-5.4,5.6-10.7,0.6-14.7c-2.4-1.9-4.9-2-7.7-1.3c-4.2,1-10.7,5.7-14.1,2.9c-1.8-1.5-2-4.2,0.3-7.1c3-3.7,6.3-2.6,8.4-1.4
			L205.1-13.3L205.1-13.3z"/>
		<path id="path215" class="st1" d="M205.1-13.3l-5.6-4.2c-1,0.9-3.4,2.9-5.3,5.2c-4.2,5.1-4.3,9.8-0.5,12.9c2.8,2.3,5.9,1.9,9,0.9
			c4.7-1.6,9.3-4.7,12.8-1.9c2.2,1.7,2.4,4.8-0.1,7.9c-3.7,4.6-7.7,2.8-9.8,1.7l-0.8,1l6,4.5c1.3-0.9,3.8-2.7,6-5.5
			c4.3-5.4,5.6-10.7,0.6-14.7c-2.4-1.9-4.9-2-7.7-1.3c-4.2,1-10.7,5.7-14.1,2.9c-1.8-1.5-2-4.2,0.3-7.1c3-3.7,6.3-2.6,8.4-1.4
			L205.1-13.3L205.1-13.3z"/>
		<path id="path217" d="M231.6-7.8l9.4-8.5l-0.8-0.8c-2.4,2.1-3.3,2.1-5.7-0.6l-13-14.5c-2.4-2.6-2.3-3.6,0-5.7l-0.8-0.8l-9.4,8.5
			l0.8,0.8c2.4-2.2,3.3-2.1,5.7,0.6l13,14.5c2.4,2.6,2.4,3.6,0,5.7L231.6-7.8L231.6-7.8z"/>
		<path id="path219" class="st1" d="M231.6-7.8l9.4-8.5l-0.8-0.8c-2.4,2.1-3.3,2.1-5.7-0.6l-13-14.5c-2.4-2.6-2.3-3.6,0-5.7
			l-0.8-0.8l-9.4,8.5l0.8,0.8c2.4-2.2,3.3-2.1,5.7,0.6l13,14.5c2.4,2.6,2.4,3.6,0,5.7L231.6-7.8L231.6-7.8z"/>
		<path id="path221" d="M251.6-52.7l-4.3-5.6c-1.2,0.6-4,1.8-6.5,3.6c-5.4,3.8-6.9,8.3-4.1,12.3c2.1,3,5.1,3.5,8.4,3.4
			c4.9-0.2,10.2-1.9,12.8,1.7c1.6,2.3,1,5.3-2.2,7.5c-4.9,3.4-8.1,0.5-9.9-1l-1.1,0.8l4.5,6c1.5-0.6,4.4-1.6,7.3-3.6
			c5.6-4,8.3-8.7,4.7-14c-1.8-2.5-4.2-3.3-7-3.4c-4.3-0.2-11.8,2.5-14.4-1.1c-1.4-1.9-0.7-4.6,2.3-6.7c3.9-2.8,6.8-0.8,8.5,1
			L251.6-52.7L251.6-52.7z"/>
		<path id="path223" class="st1" d="M251.6-52.7l-4.3-5.6c-1.2,0.6-4,1.8-6.5,3.6c-5.4,3.8-6.9,8.3-4.1,12.3c2.1,3,5.1,3.5,8.4,3.4
			c4.9-0.2,10.2-1.9,12.8,1.7c1.6,2.3,1,5.3-2.2,7.5c-4.9,3.4-8.1,0.5-9.9-1l-1.1,0.8l4.5,6c1.5-0.6,4.4-1.6,7.3-3.6
			c5.6-4,8.3-8.7,4.7-14c-1.8-2.5-4.2-3.3-7-3.4c-4.3-0.2-11.8,2.5-14.4-1.1c-1.4-1.9-0.7-4.6,2.3-6.7c3.9-2.8,6.8-0.8,8.5,1
			L251.6-52.7L251.6-52.7z"/>
		<path id="path225" d="M476.8-60.2c0-1.6,1.3-3,3-3c1.6,0,3,1.3,3,3c0,1.6-1.3,3-3,3C478.1-57.2,476.8-58.5,476.8-60.2L476.8-60.2z
			"/>
		<path id="path227" d="M483.6-52c0-1.6,1.3-3,3-3c1.6,0,3,1.3,3,3c0,1.6-1.3,3-3,3C485-49,483.6-50.3,483.6-52L483.6-52z"/>
		<path id="path229" d="M481.5-39.3c0-1.6,1.3-3,3-3c1.6,0,3,1.3,3,3c0,1.6-1.3,3-3,3C482.8-36.4,481.5-37.7,481.5-39.3L481.5-39.3z
			"/>
		<path id="path231" d="M468.3-35.7c0-1.6,1.3-3,3-3c1.6,0,3,1.3,3,3c0,1.6-1.3,3-3,3C469.6-32.8,468.3-34.1,468.3-35.7L468.3-35.7z
			"/>
		<path id="path233" d="M461.1-44.9c0-1.6,1.3-3,3-3c1.6,0,3,1.3,3,3c0,1.6-1.3,3-3,3C462.4-42,461.1-43.3,461.1-44.9L461.1-44.9z"
			/>
		<path id="path235" d="M464.2-56.8c0-1.6,1.3-3,3-3c1.6,0,3,1.3,3,3s-1.3,3-3,3C465.5-53.8,464.2-55.1,464.2-56.8L464.2-56.8z"/>
		<path id="path237" d="M518.6,261.6c0-1.6,1.3-3,3-3c1.6,0,3,1.3,3,3c0,1.6-1.3,3-3,3C519.9,264.5,518.6,263.2,518.6,261.6
			L518.6,261.6z"/>
		<path id="path239" d="M525.5,269.8c0-1.6,1.3-3,3-3c1.6,0,3,1.3,3,3c0,1.6-1.3,3-3,3C526.8,272.7,525.5,271.4,525.5,269.8
			L525.5,269.8z"/>
		<path id="path241" d="M523.3,282.4c0-1.6,1.3-3,3-3c1.6,0,3,1.3,3,3c0,1.6-1.3,3-3,3C524.6,285.4,523.3,284.1,523.3,282.4
			L523.3,282.4z"/>
		<path id="path243" d="M510.1,286c0-1.6,1.3-3,3-3c1.6,0,3,1.3,3,3c0,1.6-1.3,3-3,3C511.5,289,510.1,287.7,510.1,286L510.1,286z"/>
		<path id="path245" d="M502.9,276.8c0-1.6,1.3-3,3-3c1.6,0,3,1.3,3,3c0,1.6-1.3,3-3,3C504.2,279.8,502.9,278.5,502.9,276.8
			L502.9,276.8z"/>
		<path id="path247" d="M506,265c0-1.6,1.3-3,3-3c1.6,0,3,1.3,3,3c0,1.6-1.3,3-3,3C507.4,267.9,506,266.6,506,265L506,265z"/>
		<path id="path249" class="st4" d="M485.2,182.2l-7.7,13.3l-7.7-13.3H485.2L485.2,182.2z M485.2,160.9l-7.7-13.3l-7.7,13.3H485.2
			L485.2,160.9z"/>
		<path id="path251" class="st2" d="M470.5,171.2c0-3.9,3.2-7.1,7.1-7.1c3.9,0,7.1,3.2,7.1,7.1c0,3.9-3.2,7.1-7.1,7.1
			C473.6,178.3,470.5,175.1,470.5,171.2L470.5,171.2z M477.5,120v19 M477.5,199.2v22.3"/>
		<path id="path253" class="st4" d="M461.6,110.7h30.6 M461.6,234.7h30.6"/>
		<path id="path255" class="st1" d="M457.6,57.9h43.5v14.9h-43.5V57.9L457.6,57.9z M456.8,85.5h43.5v14.9h-43.5V85.5L456.8,85.5z
			 M461.8,101.2h32.8v145.3h-32.8V101.2L461.8,101.2z"/>
		<path id="path257" class="st2" d="M459.5,75.5v6.8c1.9,0.1,3.3-0.4,4.6-1.8c1.5-1.5,2-3,1.8-5.1H459.5L459.5,75.5z M497.7,75.5
			v7.7c-2.4-0.1-4-0.9-5.5-2.7c-1.3-1.6-1.8-3-1.8-5.1H497.7L497.7,75.5z M466.8,75.5c0,1.9,0.3,3,1.3,4.6c0.9,1.5,1.7,2.3,3.3,3.1
			c1.7-1,2.6-1.9,3.5-3.5c0.9-1.5,1.2-2.5,1.3-4.2H466.8L466.8,75.5z M478.1,75.5c0,1.9,0.3,3,1.3,4.6c0.9,1.5,1.7,2.3,3.3,3.1
			c2.1-0.7,3.3-1.7,4.5-3.5c0.9-1.4,1.2-2.5,1.3-4.2H478.1L478.1,75.5z"/>
		<polygon id="polygon259" class="st3" points="454.1,246.3 500.4,246.3 500.4,261.2 454.1,261.2 		"/>
		<path id="path261" class="st2" d="M242.4,75.3v6.8c1.9,0.1,3.3-0.4,4.6-1.8c1.5-1.5,2-3,1.8-5.1H242.4L242.4,75.3z M280.6,75.3
			v7.7c-2.4-0.1-4-0.9-5.5-2.7c-1.3-1.6-1.8-3-1.8-5.1H280.6L280.6,75.3z M249.7,75.3c0,1.9,0.3,3,1.3,4.6c0.9,1.5,1.7,2.3,3.3,3.1
			c1.7-1,2.6-1.9,3.5-3.5c0.9-1.5,1.2-2.5,1.3-4.2H249.7L249.7,75.3z M261,75.3c0,1.9,0.3,3,1.3,4.6c0.9,1.5,1.7,2.3,3.3,3.1
			c2.1-0.7,3.3-1.7,4.5-3.5c0.9-1.4,1.2-2.5,1.3-4.2H261L261,75.3z"/>
		<line id="line263" class="st4" x1="246.2" y1="234.7" x2="276.8" y2="234.7"/>
		<path id="path265" class="st1" d="M245.3,101.2h32.8v144.5h-32.8V101.2L245.3,101.2z M238.5,85.5h43.5v14.9h-43.5V85.5L238.5,85.5
			z"/>
		<path id="path267" class="st4" d="M269.2,180l-7.7,13.3l-7.7-13.3H269.2L269.2,180z M269.2,158.7l-7.7-13.3l-7.7,13.3H269.2
			L269.2,158.7z"/>
		<path id="path269" class="st2" d="M254.5,169c0-3.9,3.2-7.1,7.1-7.1c3.9,0,7.1,3.2,7.1,7.1c0,3.9-3.2,7.1-7.1,7.1
			C257.7,176.1,254.5,172.9,254.5,169L254.5,169z M261.6,117.9v19 M261.6,197.1v22.3"/>
		<polygon id="polygon271" class="st3" points="236.7,246.3 283,246.3 283,261.2 236.7,261.2 		"/>
		<line id="line273" class="st4" x1="246.2" y1="110.7" x2="276.8" y2="110.7"/>
		<path id="path275" class="st1" d="M349.6-28.2c-1.4,1.4-3.4,2.3-5.6,2.2c-4.2-0.1-7.5-3.7-7.3-7.9c0.1-4.2,3.7-7.5,7.9-7.3
			 M332.4-22.8c-1.1,1.7-2.8,3-5,3.4c-4.1,0.8-8.1-1.9-8.9-6c-0.8-4.1,1.9-8.1,6-8.9 M317.7-15.5c-0.7,1.9-2.2,3.5-4.2,4.3
			c-3.9,1.6-8.3-0.2-10-4c-1.6-3.9,0.2-8.3,4-10 M303.7-6.2c-0.3,2-1.4,3.9-3.2,5.1c-3.4,2.4-8.2,1.6-10.6-1.9
			c-2.4-3.4-1.6-8.2,1.9-10.6 M290.8,6.8c0.1,2-0.6,4.1-2,5.7c-2.9,3.1-7.7,3.2-10.8,0.4c-3.1-2.9-3.2-7.7-0.4-10.8 M280.9,21.1
			c0.5,1.9,0.3,4.1-0.8,6c-2.2,3.6-6.8,4.8-10.4,2.6c-3.6-2.2-4.8-6.8-2.6-10.4 M273.2,36.4c0.9,1.8,1.1,4,0.3,6
			c-1.4,4-5.8,6-9.8,4.6c-4-1.4-6-5.8-4.6-9.8 M391.3-27.4c1.4,1.4,3.4,2.2,5.6,2.2c4.2-0.1,7.5-3.7,7.3-7.9
			c-0.1-4.2-3.7-7.5-7.9-7.3 M408.4-21c1.1,1.7,2.8,3,5,3.4c4.1,0.8,8.1-1.9,8.9-6c0.8-4.1-1.9-8.1-6-8.9 M423.1-12.6
			c0.7,1.9,2.2,3.5,4.2,4.3c3.9,1.6,8.3-0.2,10-4c1.6-3.9-0.2-8.3-4-10 M437.2-3.2c0.3,2,1.4,3.9,3.2,5.1c3.4,2.4,8.2,1.6,10.6-1.9
			c2.4-3.4,1.6-8.2-1.9-10.6 M450.1,9.7c-0.1,2,0.6,4.1,2,5.7c2.9,3.1,7.7,3.2,10.8,0.4c3.1-2.9,3.2-7.7,0.4-10.8 M460,24
			c-0.5,1.9-0.3,4.1,0.8,6c2.2,3.6,6.8,4.8,10.5,2.6c3.6-2.2,4.8-6.8,2.6-10.4 M467.7,39.3c-0.9,1.8-1.1,4-0.3,6
			c1.4,4,5.8,6,9.8,4.6c4-1.4,6-5.8,4.6-9.8"/>
		<path id="path277" class="st1" d="M359.4-38.2c0-8.4,4.4-15.2,9.9-15.2c5.5,0,9.9,6.8,9.9,15.2c0,8.4-4.4,15.2-9.9,15.2
			C363.9-22.9,359.4-29.7,359.4-38.2L359.4-38.2z"/>
		<path id="path279" class="st1" d="M361.8-52.1C306.2-45,253.8,1.8,246,57l29.9,0.2c8-44.2,46.6-77.7,93.1-77.7 M369-20.5
			c46.7,0,85.1,33.1,92.8,77.6l29.8-0.1C484-1.5,436.6-47.6,377.1-51.1"/>
		<path id="path281" class="st2" d="M377.2,141.3h4 M357.7,117l-12.1,3.5l-3,2.2l5.1,9.2l2.4,11.3l18.5-1.6 M390.7,141.8h4l5.4-11.8
			l-0.8-3.2l-6.2-3.2 M352.1,120l5.1,10l0.8,5.4h7.8 M375.8,133.5l7.6-0.8"/>
		<path id="path283" class="st4" d="M371.4,127.8h13.1 M342.3,226.8c-1.2,3.5-1.9,5.5-2.9,9c-1.1,4.1-2.3,6.4-2.5,10.6
			c0,1,0,1.5,0,2.5 M360.5,228.6l-3.3,10.6l-0.6,8.9 M393.3,226l4.7,14.6l-0.6,9.5 M383.7,227.7l1.7,16.9v6.2 M370.3,228.9l1.1,21.8
			 M328,221c-2,5.4-3,8.6-4.2,14.2c-1.5,6.4-2,10.1-2.5,16.6c2.5,0.8,3.9,1.2,6.5,1.9c5.2,1.4,11,2.6,13.5,2.8
			c4.2,0.4,32.1,2.7,51.8-1.7c3.3-0.3,7-0.6,11.2-0.8c1-0.1,3.3-0.7,3.1-1.7c-0.6-4.8-0.3-6.6-0.9-10.7c-0.7-5.2-1-8.2-2.8-13.1
			c-1-2.7-1.7-4.2-3-6.7"/>
		<path id="path285" class="st1" d="M406.7,81.2h32.8l11.3,6 M407.5,82.4l5.8,4.9l-0.1,47.9l-5.7-6L407.5,82.4L407.5,82.4z
			 M413,87.4h37.5v49.1h-36.9 M424.1,136.5V87.4l-7.3-6.6 M432.2,80.8l8.1,5.8l-0.1,48.8 M407.2,91.6l6.1,6.6h36.4 M407.2,116.9
			l5.6,6.9h37.2"/>
		<path id="path287" class="st2" d="M468-47.9c0-4.1,3.4-7.5,7.5-7.5c4.1,0,7.5,3.4,7.5,7.5c0,4.1-3.4,7.5-7.5,7.5
			C471.3-40.4,468-43.8,468-47.9L468-47.9z M279.7-63.2c0-4.1,3.4-7.5,7.5-7.5c4.1,0,7.5,3.4,7.5,7.5c0,4.1-3.4,7.5-7.5,7.5
			C283.1-55.7,279.7-59.1,279.7-63.2L279.7-63.2z"/>
		<path id="path289" class="st4" d="M320.9,94.6l36.1,97.6 M325.7,91.3l40.1,105 M326.5,90.5c-0.5-2.8,0-4.8,1.7-7
			c2.2-2.9,5-4,8.5-3.5c-2.3-2.3-4.9-3.1-8-2.3c-2.2,0.6-3.5,1.4-4.7,3.3c-0.6-1.5-1.1-2.3-2-3.5c-1.6-2.1-2.7-3.2-5-4.5
			c-1.1,2.1-1.4,3.4-1.5,5.8c-0.1,2.3,0.1,3.6,1,5.8c-2.4-1-4.3-1-6.8,0c-2.7,1.1-4.1,2.7-5,5.5c3.1-1.5,5.4-1.8,8.7-1.2
			c1.6,0.3,2.7,0.4,4,1.5c1.4,1.1,2,2.1,2.5,3.8c0.7-1.4,1.4-2.1,2.8-2.8C324,90.6,325,90.4,326.5,90.5L326.5,90.5z M323,101.1
			c0.1-1.2,0.7-2,1.8-2.5c1.1-0.6,2.2-0.5,3.2,0.3 M325.5,106.6c-0.3-1.2,0-2.2,1-3c1.2-1,3-0.7,4,0.5 M391,177.3
			c4.7,6,6.8,9.8,9.6,16.9c3.8,9.7,4.8,15.9,4.4,26.3h-12.8c-3.5,1.5-5.6,2.1-9.3,2.9c-5.4,1.1-8.6,0.9-14.2,0.8
			c-7.3-0.1-11.8-0.6-18.6-1.9c-3.2-0.7-4.5-1-7.3-1.7c-4.5,1.3-7.6,1.3-12.1,0c-2.1-0.6-3.2-1.1-5.1-2.2c0.3-5.3,0.8-8.3,2-13.5
			c0.9-3.9,1.6-6,3-9.8 M342.3,204.4l-0.8,6.2v5.3 M370,177.3l1.7,6.5l0.6,11.8 M380.1,177.9c3.5,7.5,5,12,7,20.1
			c1.6,6.8,2.3,10.7,2.8,17.7 M328.8,133.9l3.3,0.8l5.3,5.8l-5.3-11.7l-5.5,3.6l-4.5,8.5l-1.1,3.6l12,4l8.7,6.9 M321.6,146.2
			c-0.5,2.1-1,3.2-1.9,5.1c-2.5,4.7-6.8,5.2-9.6,9.8c-1.4,2.3-2,3.6-2.8,6.2c-0.8,2.6-1.4,4.3-1.1,7c0.2,2.6,0.1,4.9,2.2,6.5
			c1.4,1,2.5,1.3,4.2,1.1c2.2-1.3,3.3-2.6,5.8-3.1c9.3-1.7,12.6-2.6,19.3-4.5c2.3-0.8,4.2-0.6,4.8-3.9c1-5.3-1.4-7.3-2.3-11.5
			l1.5-2.5 M340.8,174.5c2.5,1.6,3.7,2.8,5.6,5.1c2.1,2.5,3.1,4.2,4.2,7.3c-1.9,2-3.1,3.1-5.3,4.7c-1.5,1.1-2.5,1.7-4.2,2.6
			c-3.7,0.7-5.9,0.8-9.6,0.3c-5.1-0.7-8.1-1.8-12.3-4.8c-3.1-2.2-4.7-3.8-6.9-7 M338.9,195.5c-0.1,1.6,0.4,2.7,1.7,3.7
			c1.4,1.1,2.9,1.3,4.5,0.6c4-1.5,11.2-7.8,11.2-7.8l-4.2-4.8 M345.6,200.8c2.1,3.7,3.6,5.6,6.7,8.4c2.8,2.5,4.7,3.7,8.1,5.3
			l2.5,1.9l3.7,0.3 M361,209.2c1.7,1.3,2.6,2.2,4,3.9c1.3,1.7,0.9,3.7,2.8,4.8c2,1.2,3.9,1.2,5.9,0 M366.9,207.9l2.8,4.7l1.7,5.1
			 M395.5,147c1.9,2.7,2.5,4.8,2.2,8.1c-0.2,2.3-1.1,3.5-1.9,5.6c-1,2.6-1.7,4-3,6.5l-14.3-1.7l-9.7-0.3l-13.3,1.4 M358,173.7
			l15.4-0.8l18.4,1.7l0.9-4.8 M418.1,138.4c-1.3,0.9-1.9,1.8-2.2,3.4c-0.2,1.2-0.2,1.9,0.3,3c1.8,0.8,2.8,1.1,4.7,1.7
			c2.7,0.8,4.2,1.1,7,1.4c0.8-1.9,1.7-2.9,3.4-4.2c3-2.1,5.9,0,9.5-1.1c1.7-0.5,2.5-1.4,4.2-1.7c2.1-0.5,4.6,2,5.6,0
			c0.5-1,0.5-1.8,0-2.8 M413.6,147.3c2.3-0.9,3.8-1.1,6.2-0.8c3.2,0.3,4.6,2.2,7.6,3.4c1.1,0.4,2.9-0.1,2.9,1.1
			c-0.3,4.2-3,4.4-5.9,4.4c-2.5,0-3.1-2.9-5.6-3.3c-1.9-0.3-3.4,1.8-4.8,0.6c-0.7-0.6-1-1.1-1.1-1.9 M400,132.2l5.5,4.2l3.1,14
			 M411.7,151.3l-5.6,2.5l-7.8,9.6 M424.9,156.3c-4.2,7-5.1,9.2-7.6,18.2c-1.3,4.8-3.4,11.2-8.9,16.5c-1.6,1.5-2.9,2.7-5.1,2.6
			c-1-0.1-1.6-0.3-2.5-0.8 M437.8,141l2.8-0.4"/>
		<path id="path327" class="st1" d="M237,251.6c-31.4-30.5-48-74-48-122.4c0-95.6,79.4-177.8,175-180.1 M130.5,129.3
			c0-131.6,106.7-238.3,238.3-238.3S607.2-2.4,607.2,129.3c0,131.6-106.7,238.3-238.3,238.3C237.2,367.6,130.5,260.9,130.5,129.3
			L130.5,129.3z M375.6-50.5c95,4.8,173.1,83.6,173.1,179.8c0,46.6-19.2,90-48.3,121.9 M476.3,273.5
			c-23.2,18.2-67.6,34.6-102.4,36.8 M359,309.7c-37.3-1.9-67.5-14.5-95.4-35.8"/>
		<path id="path329" class="st4" d="M253.9,268.1c0-3.8,3.1-6.9,6.9-6.9c3.8,0,6.9,3.1,6.9,6.9c0,3.8-3.1,6.9-6.9,6.9
			C257,275,253.9,271.9,253.9,268.1L253.9,268.1z M472.3,268.1c0-3.8,3.1-6.9,6.9-6.9s6.9,3.1,6.9,6.9c0,3.8-3.1,6.9-6.9,6.9
			C475.4,275,472.3,271.9,472.3,268.1L472.3,268.1z"/>
		<path id="path331" class="st2" d="M353.2-85c1.8-5.9,9.3-8.9,14.7-5.8c3.3,1.9,4.9,4.4,5,8.2c0.2,4.2-2.2,6.7-5.5,9.4
			c-2.2,1.8-3.8,2.5-6.5,3.1 M331.6-70.8c-12.6,7.7-17.1,2-17.3-4.7c-0.2-6.2,5.7-9.2,12.4-9.8c12.6-1.2,16.6,14.7,33.1,15.1
			l3.9-0.1l3.6-0.1c16.4-1.1,19.9-17.1,32.5-16.3c6.7,0.4,12.7,3.2,12.7,9.4c0,6.7-4.2,12.5-17.1,5.3"/>
		<path id="path333" class="st1" d="M222.8,71.3c0,0-6.6,9.7-10,16.3c-2.9,5.7-6.4,15-6.4,15c3,3.4,4.6,4.5,6.4,8.2
			c2.2,4.6,1.7,5.7,1.2,8.8 M225.7,114.5c-9.1,4.2-23.6,10.7-24,15.4c-0.5,7.3,12.3,16.8,22,23.2c4.7-6.3,6.4-11.1,6.8-19
			C230.9,126.3,229.7,121.3,225.7,114.5L225.7,114.5z M228.8,122.7l-9.9,4.2 M230.1,134.2h-11.7 M228.3,144.5l-10.8-4.2
			 M213.3,146.1c-0.6,2.6-1.1,4.1-2.2,6.6c-1.8,3.9-3.3,6-6.4,9.1c3.5,4.8,5.7,7.3,9.9,11.4c3.3,3.2,5.3,5,9.1,7.7"/>
		<path id="path335" class="st1" d="M515.3,71.3c0,0,6.6,9.7,10,16.3c2.9,5.7,6.4,15,6.4,15c-3,3.4-4.6,4.5-6.4,8.2
			c-2.2,4.6-2.1,6.1-1.6,9.2 M512.5,114.5c10.3,1.2,23.3,16.5,25.5,20.8c2.3,4.5-15.2,14-23.6,17.8c-4.7-6.3-6.4-11.1-6.8-19
			C507.2,126.3,508.5,121.3,512.5,114.5L512.5,114.5z M509.4,122.7l9.9,4.2 M508.1,134.2h11.7 M509.8,144.5l10.8-4.2 M524.8,148
			c0.3,3.5,0.8,5.4,2.2,8.6c1.7,4,3.2,6.1,6.4,9.1c-3.5,4.8-5.7,7.3-9.9,11.5c-3.3,3.2-5.3,4.9-9,7.7"/>
		<path id="path337" class="st4" d="M289.9,244l32.3-0.3 M407.5,244l37.8-0.3 M344,168.9l2.8-1.1 M374.7,217.9
			c0-1.4-0.1-2.2-0.3-3.6c-0.6-3.8-1.5-6.1-3.6-9.3l-3.7-6.7l-5.6-3.3l-3.6-1.4"/>
	</g>
</g>
</svg>
